# Wavefront OBJ file
# Creator: Ultimate Unwrap3D Pro v3.22
# Website: http://www.unwrap3d.com
# Time: Fri Jul 09 21:36:39 2010
# num_vertices: 52
# num_vertex_normals: 52
# num_uvs: 138
# num_faces: 46
# num_groups: 1

mtllib cavecloser.mtl

v 0.097900 69.020035 44.138050
v 0.491700 40.838047 50.987751
v 0.368500 22.077328 48.843849
v -0.946000 83.311249 25.980360
v -0.119900 1.212200 40.341949
v -2.313300 90.666725 2.180750
v -2.240700 0.000000 3.441361
v -3.932500 83.347878 -25.991350
v -4.759700 1.205269 -40.391418
v -4.973100 69.089668 -44.107250
v -5.198600 22.128475 -48.025429
v -5.369100 40.782940 -50.987751
v -0.946000 83.311249 25.980360
v 2.564100 90.666725 2.180750
v -2.313300 90.666725 2.180750
v 3.931400 83.311249 25.980360
v 0.097900 69.020035 44.138050
v 4.975300 69.020035 44.138050
v 0.491700 40.838047 50.987751
v 5.369100 40.838047 50.987751
v 0.368500 22.077328 48.843849
v 5.245900 22.077328 48.843849
v -0.119900 1.212200 40.341949
v 4.757500 1.212200 40.341949
v -2.240700 0.000000 3.441361
v 2.636700 0.000000 3.441361
v -4.759700 1.205269 -40.391418
v -2.240700 0.000000 3.441361
v 2.636700 0.000000 3.441361
v 0.117700 1.205269 -40.391418
v -5.198600 22.128475 -48.025429
v -0.321200 22.128475 -48.025429
v -5.369100 40.782940 -50.987751
v -0.491700 40.782940 -50.987751
v -4.973100 69.089668 -44.107250
v -0.095700 69.089668 -44.107250
v -3.932500 83.347878 -25.991350
v 0.944900 83.347878 -25.991350
v -2.313300 90.666725 2.180750
v 2.564100 90.666725 2.180750
v 3.931400 83.311249 25.980360
v 2.564100 90.666725 2.180750
v 0.944900 83.347878 -25.991350
v 4.975300 69.020035 44.138050
v -0.095700 69.089668 -44.107250
v 5.369100 40.838047 50.987751
v -0.491700 40.782940 -50.987751
v 5.245900 22.077328 48.843849
v -0.321200 22.128475 -48.025429
v 4.757500 1.212200 40.341949
v 0.117700 1.205269 -40.391418
v 2.636700 0.000000 3.441361
# num_vertices: 52

vn -0.998352 -0.000002 0.057392
vn -0.998352 -0.000002 0.057388
vn -0.998352 -0.000004 0.057386
vn -0.998353 -0.000008 0.057374
vn -0.998353 -0.000008 0.057368
vn -0.998353 -0.000005 0.057371
vn -0.998353 -0.000002 0.057378
vn -0.998353 -0.000002 0.057367
vn -0.998353 0.000000 0.057376
vn -0.998351 0.000001 0.057405
vn -0.998349 0.000002 0.057434
vn -0.998348 -0.000000 0.057460
vn 0.000000 0.912484 0.409112
vn 0.000000 0.955411 0.295278
vn 0.000000 0.955411 0.295278
vn 0.000000 0.855092 0.518476
vn 0.000000 0.633384 0.773838
vn 0.000000 0.440814 0.897598
vn 0.000000 0.121271 0.992619
vn 0.000000 0.003076 0.999995
vn 0.000000 -0.203154 0.979147
vn 0.000000 -0.291824 0.956472
vn 0.000000 -0.681247 0.732054
vn 0.000000 -0.922853 0.385153
vn 0.000000 -0.999461 0.032833
vn 0.000000 -0.999461 0.032833
vn 0.000000 -0.920466 -0.390823
vn 0.000000 -0.999622 -0.027487
vn 0.000000 -0.999622 -0.027487
vn 0.000000 -0.662301 -0.749238
vn 0.000000 -0.281941 -0.959432
vn 0.000000 -0.219711 -0.975565
vn 0.000000 -0.026281 -0.999655
vn 0.000000 0.107040 -0.994255
vn 0.000000 0.440825 -0.897593
vn 0.000000 0.633390 -0.773833
vn 0.000000 0.862739 -0.505650
vn 0.000000 0.924592 -0.380960
vn 0.000000 0.967872 -0.251444
vn 0.000000 0.967872 -0.251444
vn 0.998353 -0.000005 -0.057369
vn 0.998353 -0.000043 -0.057369
vn 0.998353 0.000007 -0.057370
vn 0.998353 0.000023 -0.057370
vn 0.998353 0.000006 -0.057373
vn 0.998353 -0.000004 -0.057375
vn 0.998353 -0.000002 -0.057377
vn 0.998353 0.000008 -0.057376
vn 0.998353 0.000011 -0.057376
vn 0.998353 -0.000021 -0.057376
vn 0.998353 -0.000037 -0.057376
vn 0.998353 -0.000082 -0.057376
# num_vertex_normals: 52

vt 0.313923 0.623524
vt 0.320895 0.685720
vt 0.320895 0.685720
vt 0.313923 0.623524
vt 0.304702 0.780099
vt 0.320895 0.685720
vt 0.295956 0.553762
vt 0.304702 0.780099
vt 0.313923 0.623524
vt 0.295956 0.553762
vt 0.262065 0.827637
vt 0.304702 0.780099
vt 0.192795 0.549744
vt 0.262065 0.827637
vt 0.295956 0.553762
vt 0.192795 0.549744
vt 0.195762 0.852039
vt 0.262065 0.827637
vt 0.105949 0.553786
vt 0.195762 0.852039
vt 0.192795 0.549744
vt 0.105949 0.553786
vt 0.139749 0.827515
vt 0.195762 0.852039
vt 0.085940 0.623353
vt 0.139749 0.827515
vt 0.105949 0.553786
vt 0.085940 0.623353
vt 0.097015 0.779867
vt 0.139749 0.827515
vt 0.080894 0.685904
vt 0.097015 0.779867
vt 0.085940 0.623353
vt 0.139749 0.827515
vt 0.262065 0.827637
vt 0.195762 0.852039
vt 0.139749 0.827515
vt 0.262065 0.827637
vt 0.262065 0.827637
vt 0.097015 0.779867
vt 0.262065 0.827637
vt 0.139749 0.827515
vt 0.097015 0.779867
vt 0.304702 0.780099
vt 0.262065 0.827637
vt 0.080894 0.685904
vt 0.304702 0.780099
vt 0.097015 0.779867
vt 0.080894 0.685904
vt 0.320895 0.685720
vt 0.304702 0.780099
vt 0.085940 0.623353
vt 0.320895 0.685720
vt 0.080894 0.685904
vt 0.085940 0.623353
vt 0.313923 0.623524
vt 0.320895 0.685720
vt 0.105949 0.553786
vt 0.313923 0.623524
vt 0.085940 0.623353
vt 0.105949 0.553786
vt 0.295956 0.553762
vt 0.313923 0.623524
vt 0.192795 0.549744
vt 0.295956 0.553762
vt 0.105949 0.553786
vt 0.172003 0.867943
vt 0.189186 0.949632
vt 0.165310 0.949632
vt 0.172003 0.867943
vt 0.195879 0.867943
vt 0.189186 0.949632
vt 0.177113 0.797149
vt 0.195879 0.867943
vt 0.172003 0.867943
vt 0.177113 0.797149
vt 0.200989 0.797149
vt 0.195879 0.867943
vt 0.179041 0.711230
vt 0.200989 0.797149
vt 0.177113 0.797149
vt 0.179041 0.711230
vt 0.202917 0.711230
vt 0.200989 0.797149
vt 0.178438 0.658473
vt 0.202917 0.711230
vt 0.179041 0.711230
vt 0.178438 0.658473
vt 0.202314 0.658473
vt 0.202917 0.711230
vt 0.176047 0.601378
vt 0.202314 0.658473
vt 0.178438 0.658473
vt 0.176047 0.601378
vt 0.199923 0.601378
vt 0.202314 0.658473
vt 0.165665 0.502961
vt 0.199923 0.601378
vt 0.176047 0.601378
vt 0.165665 0.502961
vt 0.189541 0.502961
vt 0.199923 0.601378
vt 0.195806 0.846045
vt 0.232013 0.966970
vt 0.208137 0.966970
vt 0.195806 0.846045
vt 0.219682 0.846045
vt 0.232013 0.966970
vt 0.193657 0.789877
vt 0.219682 0.846045
vt 0.195806 0.846045
vt 0.193657 0.789877
vt 0.217533 0.789877
vt 0.219682 0.846045
vt 0.192823 0.736430
vt 0.217533 0.789877
vt 0.193657 0.789877
vt 0.192823 0.736430
vt 0.216698 0.736430
vt 0.217533 0.789877
vt 0.194761 0.650129
vt 0.216698 0.736430
vt 0.192823 0.736430
vt 0.194761 0.650129
vt 0.218637 0.650129
vt 0.216698 0.736430
vt 0.199855 0.579522
vt 0.218637 0.650129
vt 0.194761 0.650129
vt 0.199855 0.579522
vt 0.223731 0.579522
vt 0.218637 0.650129
vt 0.207781 0.483640
vt 0.223731 0.579522
vt 0.199855 0.579522
vt 0.207781 0.483640
vt 0.231657 0.483640
vt 0.223731 0.579522
# num_uvs: 138

g cavecloser
s 1

usemtl cave1
f 11/1/11 12/2/12 12/3/12 
f 11/4/11 10/5/10 12/6/12 
f 9/7/9 10/8/10 11/9/11 
f 9/10/9 8/11/8 10/12/10 
f 7/13/7 8/14/8 9/15/9 
f 7/16/7 6/17/6 8/18/8 
f 5/19/5 6/20/6 7/21/7 
f 5/22/5 4/23/4 6/24/6 
f 3/25/3 4/26/4 5/27/5 
f 3/28/3 1/29/1 4/30/4 
f 2/31/2 1/32/1 3/33/3 
f 41/34/41 43/35/43 42/36/42 
f 41/37/41 43/38/43 43/39/43 
f 44/40/44 43/41/43 41/42/41 
f 44/43/44 45/44/45 43/45/43 
f 46/46/46 45/47/45 44/48/44 
f 46/49/46 47/50/47 45/51/45 
f 48/52/48 47/53/47 46/54/46 
f 48/55/48 49/56/49 47/57/47 
f 50/58/50 49/59/49 48/60/48 
f 50/61/50 51/62/51 49/63/49 
f 52/64/52 51/65/51 50/66/50 
f 13/67/13 14/68/14 15/69/15 
f 13/70/13 16/71/16 14/72/14 
f 17/73/17 16/74/16 13/75/13 
f 17/76/17 18/77/18 16/78/16 
f 19/79/19 18/80/18 17/81/17 
f 19/82/19 20/83/20 18/84/18 
f 21/85/21 20/86/20 19/87/19 
f 21/88/21 22/89/22 20/90/20 
f 23/91/23 22/92/22 21/93/21 
f 23/94/23 24/95/24 22/96/22 
f 25/97/25 24/98/24 23/99/23 
f 25/100/25 26/101/26 24/102/24 
f 27/103/27 29/104/29 28/105/28 
f 27/106/27 30/107/30 29/108/29 
f 31/109/31 30/110/30 27/111/27 
f 31/112/31 32/113/32 30/114/30 
f 33/115/33 32/116/32 31/117/31 
f 33/118/33 34/119/34 32/120/32 
f 35/121/35 34/122/34 33/123/33 
f 35/124/35 36/125/36 34/126/34 
f 37/127/37 36/128/36 35/129/35 
f 37/130/37 38/131/38 36/132/36 
f 39/133/39 38/134/38 37/135/37 
f 39/136/39 40/137/40 38/138/38 
# num_faces: 46

