# Wavefront OBJ file
# Creator: Ultimate Unwrap3D Pro v3.22
# Website: http://www.unwrap3d.com
# Time: Fri Jul 09 22:34:57 2010
# num_vertices: 130
# num_vertex_normals: 130
# num_uvs: 500
# num_faces: 122
# num_groups: 1

mtllib stalag4.mtl

v -2.029802 0.348923 2.351859
v -2.379202 0.252472 2.615199
v -2.811001 0.133270 2.615199
v -3.160501 0.036819 2.351859
v -3.293901 0.000000 1.925759
v -3.160501 0.036819 1.499669
v -2.811001 0.133270 1.236330
v -2.379202 0.252472 1.236330
v -2.029802 0.348923 1.499669
v -1.896301 0.385750 1.925759
v -3.142902 16.550152 3.532960
v -3.963001 16.323792 4.151050
v -4.976601 16.044010 4.151050
v -5.796701 15.817650 3.532960
v -6.109901 15.731201 2.532865
v -5.796701 15.817650 1.532766
v -4.976601 16.044010 0.914670
v -3.963001 16.323792 0.914670
v -3.142902 16.550152 1.532765
v -2.829601 16.636620 2.532865
v 0.067999 27.906731 1.181910
v -1.013002 28.133232 1.984374
v -2.349201 28.413132 1.984374
v -3.430302 28.639532 1.181910
v -3.843201 28.726030 -0.116510
v -3.430302 28.639532 -1.414930
v -2.349201 28.413132 -2.217400
v -1.013002 28.133232 -2.217400
v 0.067999 27.906731 -1.414930
v 0.480898 27.820229 -0.116510
v 1.263998 46.864132 5.536770
v -0.323801 46.864132 6.690350
v -2.286301 46.864132 6.690350
v -3.874001 46.864132 5.536780
v -4.480501 46.864132 3.670260
v -3.874001 46.864132 1.803748
v -2.286301 46.864132 0.650180
v -0.323801 46.864132 0.650180
v 1.263998 46.864132 1.803748
v 1.870499 46.864132 3.670260
v 1.793699 61.967930 5.752960
v -0.012402 61.967930 7.065200
v -2.244902 61.967930 7.065200
v -4.051001 61.967930 5.752960
v -4.740902 61.967930 3.629710
v -4.051001 61.967930 1.506458
v -2.244902 61.967930 0.194220
v -0.012402 61.967930 0.194220
v 1.793699 61.967930 1.506458
v 2.483599 61.967930 3.629710
v 2.918499 77.503937 4.898110
v 1.381098 77.503937 6.015140
v -0.519302 77.503937 6.015140
v -2.056801 77.503937 4.898110
v -2.644001 77.503937 3.090725
v -2.056801 77.503937 1.283340
v -0.519302 77.503937 0.166310
v 1.381098 77.503937 0.166310
v 2.918499 77.503937 1.283340
v 3.505798 77.503937 3.090725
v 3.675898 97.639938 3.912410
v 0.878899 97.967133 5.958430
v -2.578402 98.371628 5.958430
v -5.375502 98.698837 3.912410
v -6.443901 98.823837 0.601870
v -5.375502 98.698837 -2.708670
v -2.578402 98.371628 -4.754690
v 0.878899 97.967133 -4.754690
v 3.675898 97.639938 -2.708670
v 4.744299 97.515030 0.601870
v 6.827698 118.148529 4.478430
v 2.832399 118.615524 7.400980
v -2.106001 119.193527 7.400980
v -6.101402 119.660538 4.478430
v -7.627502 119.839539 -0.250350
v -6.101402 119.660538 -4.979130
v -2.106001 119.193527 -7.901690
v 2.832399 118.615524 -7.901690
v 6.827698 118.148529 -4.979130
v 8.353699 117.969528 -0.250350
v 5.398598 108.657532 4.068370
v 6.855698 108.507538 -0.429950
v 5.407898 108.695526 -4.931710
v 1.605999 109.152527 -7.715690
v -3.096802 109.702530 -7.715690
v -6.901501 110.135529 -4.931710
v -8.353701 110.286530 -0.429950
v -6.901302 110.096527 4.068380
v -3.101101 109.641525 6.846790
v 1.595898 109.091537 6.846790
v 1.544598 68.447731 6.008130
v 2.175198 68.435631 4.064400
v 1.543798 68.423332 2.121219
v -0.107901 68.415634 0.920540
v -2.149401 68.415634 0.920540
v -3.801102 68.423332 2.121219
v -4.432501 68.435631 4.064400
v -3.801901 68.447731 6.008130
v -2.149801 68.455231 7.209690
v -0.107401 68.455231 7.209690
v 2.530399 87.071030 3.822580
v 3.074299 87.073425 2.147999
v 2.530199 87.075928 0.473580
v 1.105799 87.077530 -0.561170
v -0.654602 87.077530 -0.561170
v -2.079002 87.075928 0.473580
v -2.623102 87.073425 2.147999
v -2.079201 87.071030 3.822580
v -0.654802 87.069427 4.857610
v 1.105999 87.069427 4.857610
v 1.721899 35.183533 1.266270
v 2.161598 35.091431 -0.116510
v 1.721899 35.183533 -1.499300
v 0.570599 35.424732 -2.353910
v -0.852402 35.722832 -2.353910
v -2.003702 35.964031 -1.499300
v -2.443502 36.056129 -0.116510
v -2.003702 35.964031 1.266280
v -0.852402 35.722832 2.120882
v 0.570599 35.424732 2.120882
v 3.051098 55.285030 6.273000
v 3.907299 55.286232 3.637730
v 3.051098 55.287533 1.002460
v 0.809498 55.288330 -0.626220
v -1.961302 55.288330 -0.626220
v -4.202902 55.287533 1.002460
v -5.059101 55.286232 3.637730
v -4.202902 55.285030 6.273000
v -1.961302 55.284233 7.901690
v 0.809498 55.284233 7.901690
# num_vertices: 130

vn 0.783938 -0.402918 0.472333
vn 0.394425 -0.472138 0.788362
vn -0.125551 -0.553073 0.823619
vn -0.584863 -0.614842 0.529060
vn -0.777620 -0.628734 0.000340
vn -0.605403 -0.586602 -0.537945
vn -0.145960 -0.507124 -0.849424
vn 0.391504 -0.425707 -0.815781
vn 0.791294 -0.373924 -0.483772
vn 0.930385 -0.366583 -0.000571
vn 0.817763 -0.050338 0.573349
vn 0.313768 0.020932 0.949269
vn -0.327175 0.055455 0.943335
vn -0.820875 0.040240 0.569688
vn -0.999992 -0.001420 -0.003810
vn -0.809167 -0.058666 -0.584643
vn -0.289792 -0.119797 -0.949562
vn 0.345470 -0.154317 -0.925655
vn 0.821033 -0.148800 -0.551148
vn 0.993569 -0.113143 0.004448
vn 0.801834 -0.150683 0.578235
vn 0.297369 0.008170 0.954728
vn -0.333700 0.142874 0.931789
vn -0.805714 0.200825 0.557220
vn -0.983680 0.179885 -0.003916
vn -0.806722 0.082437 -0.585152
vn -0.292557 -0.066839 -0.953909
vn 0.334669 -0.200962 -0.920658
vn 0.794924 -0.267333 -0.544636
vn 0.967652 -0.252245 0.004758
vn 0.788824 -0.200885 0.580863
vn 0.273350 -0.259026 0.926383
vn -0.334842 -0.258767 0.906047
vn -0.806654 -0.208712 0.552946
vn -0.992249 -0.124136 -0.005704
vn -0.808746 -0.024754 -0.587637
vn -0.294207 0.044129 -0.954722
vn 0.334459 0.044318 -0.941367
vn 0.819429 -0.015317 -0.572976
vn 0.994264 -0.106900 0.003531
vn 0.804549 0.101636 0.585124
vn 0.307739 0.069531 0.948927
vn -0.309105 0.044398 0.949991
vn -0.808571 0.035946 0.587299
vn -0.998869 0.047540 0.000160
vn -0.806982 0.074740 -0.585828
vn -0.307720 0.107038 -0.945437
vn 0.305897 0.132006 -0.942869
vn 0.800929 0.140168 -0.582122
vn 0.991702 0.128557 0.000188
vn 0.808755 0.024083 0.587653
vn 0.308363 0.098635 0.946141
vn -0.305306 0.144161 0.941279
vn -0.801137 0.143754 0.580960
vn -0.995155 0.098302 -0.001642
vn -0.808229 0.024453 -0.588360
vn -0.308898 -0.049962 -0.949782
vn 0.307201 -0.095836 -0.946807
vn 0.805548 -0.095776 -0.584738
vn 0.998739 -0.050197 0.000818
vn 0.801990 -0.112950 0.586562
vn 0.304037 -0.092519 0.948157
vn -0.311036 -0.117307 0.943131
vn -0.798418 -0.173469 0.576574
vn -0.971258 -0.238016 0.002608
vn -0.780104 -0.289556 -0.554613
vn -0.306403 -0.312633 -0.899098
vn 0.284833 -0.297719 -0.911171
vn 0.782031 -0.245114 -0.573015
vn 0.984964 -0.172758 0.001250
vn 0.775659 0.340929 0.531150
vn 0.327285 0.388321 0.861448
vn -0.228561 0.453324 0.861543
vn -0.675950 0.510692 0.531305
vn -0.842749 0.538307 0.000318
vn -0.668127 0.525936 -0.526305
vn -0.221862 0.478693 -0.849488
vn 0.326621 0.414547 -0.849394
vn 0.771568 0.357571 -0.526142
vn 0.944215 0.329328 0.000328
vn 0.797309 -0.139197 0.587302
vn 0.985017 -0.172455 0.000504
vn 0.790835 -0.181136 -0.584610
vn 0.291115 -0.161391 -0.942977
vn -0.320544 -0.121087 -0.939462
vn -0.811759 -0.076534 -0.578956
vn -0.998995 -0.044798 0.001324
vn -0.810972 -0.037044 0.583911
vn -0.315537 -0.055832 0.947269
vn 0.299661 -0.094626 0.949341
vn 0.808613 -0.021201 0.587959
vn 0.998806 -0.048849 0.001184
vn 0.808577 -0.043941 -0.586747
vn 0.308565 -0.008680 -0.951164
vn -0.309060 0.043972 -0.950025
vn -0.804954 0.093611 -0.585907
vn -0.992675 0.120806 -0.001475
vn -0.803906 0.115940 0.583346
vn -0.307281 0.081158 0.948152
vn 0.309702 0.028766 0.950398
vn 0.809104 0.002892 0.587659
vn 0.998417 -0.056248 0.000720
vn 0.802645 -0.135317 -0.580905
vn 0.304449 -0.199918 -0.931313
vn -0.300505 -0.226670 -0.926454
vn -0.791555 -0.209725 -0.573982
vn -0.987688 -0.156430 0.001477
vn -0.805480 -0.084156 0.586617
vn -0.308450 -0.017807 0.951074
vn 0.309265 0.016715 0.950829
vn 0.787946 -0.184829 0.587349
vn 0.994810 -0.101694 0.003492
vn 0.816114 0.003275 -0.577881
vn 0.328971 0.094652 -0.939585
vn -0.290216 0.132250 -0.947779
vn -0.802950 0.093706 -0.588634
vn -0.999975 0.004046 -0.005806
vn -0.818737 -0.095028 0.566250
vn -0.339385 -0.176587 0.923924
vn 0.272410 -0.213431 0.938211
vn 0.808361 -0.012049 0.588564
vn 0.999906 -0.013721 0.000077
vn 0.808394 -0.014852 -0.588454
vn 0.307788 -0.015009 -0.951337
vn -0.309857 -0.014053 -0.950679
vn -0.809182 -0.012316 -0.587429
vn -0.999945 -0.010511 0.000020
vn -0.809180 -0.009386 0.587485
vn -0.309836 -0.009367 0.950744
vn 0.307788 -0.010401 0.951398
# num_vertex_normals: 130

vt 0.858139 0.076329
vt 0.858139 0.130203
vt 0.805445 0.130203
vt 0.805445 0.076329
vt 0.805445 0.076329
vt 0.805445 0.130203
vt 0.754399 0.130203
vt 0.754399 0.076329
vt 0.754399 0.076329
vt 0.754399 0.130203
vt 0.701706 0.130203
vt 0.701706 0.076329
vt 0.701706 0.076329
vt 0.701706 0.130203
vt 0.646149 0.130203
vt 0.646149 0.076329
vt 0.646149 0.076329
vt 0.646149 0.130203
vt 0.590592 0.130203
vt 0.590592 0.076329
vt 0.590592 0.076329
vt 0.590592 0.130203
vt 0.537900 0.130203
vt 0.537900 0.076329
vt 0.537900 0.076329
vt 0.537900 0.130203
vt 0.486852 0.130203
vt 0.486852 0.076329
vt 0.486852 0.076329
vt 0.486852 0.130203
vt 0.434159 0.130203
vt 0.434159 0.076329
vt 0.969252 0.076329
vt 0.969252 0.130203
vt 0.913696 0.130203
vt 0.913696 0.076329
vt 0.913696 0.076329
vt 0.913696 0.130203
vt 0.858139 0.130203
vt 0.858139 0.076329
vt 0.858139 0.130203
vt 0.858139 0.171341
vt 0.805445 0.171341
vt 0.805445 0.130203
vt 0.805445 0.130203
vt 0.805445 0.171341
vt 0.754399 0.171341
vt 0.754399 0.130203
vt 0.754399 0.130203
vt 0.754399 0.171341
vt 0.701706 0.171341
vt 0.701706 0.130203
vt 0.701706 0.130203
vt 0.701706 0.171341
vt 0.646149 0.171341
vt 0.646149 0.130203
vt 0.646149 0.130203
vt 0.646149 0.171341
vt 0.590592 0.171341
vt 0.590592 0.130203
vt 0.590592 0.130203
vt 0.590592 0.171341
vt 0.537900 0.171341
vt 0.537900 0.130203
vt 0.537900 0.130203
vt 0.537900 0.171341
vt 0.486852 0.171341
vt 0.486852 0.130203
vt 0.486852 0.130203
vt 0.486852 0.171341
vt 0.434159 0.171341
vt 0.434159 0.130203
vt 0.969252 0.130203
vt 0.969252 0.171341
vt 0.913696 0.171341
vt 0.913696 0.130203
vt 0.913696 0.130203
vt 0.913696 0.171341
vt 0.858139 0.171341
vt 0.858139 0.130203
vt 0.913696 0.531887
vt 0.969252 0.531887
vt 0.486852 0.531887
vt 0.537900 0.531887
vt 0.590592 0.531887
vt 0.646149 0.531887
vt 0.701706 0.531887
vt 0.754399 0.531887
vt 0.805445 0.531887
vt 0.858139 0.531887
vt 0.858139 0.076329
vt 0.805445 0.076329
vt 0.754399 0.076329
vt 0.701706 0.076329
vt 0.646149 0.076329
vt 0.590592 0.076329
vt 0.537900 0.076329
vt 0.486852 0.076329
vt 0.969252 0.076329
vt 0.913696 0.076329
vt 0.858139 0.464317
vt 0.858139 0.499295
vt 0.805445 0.499260
vt 0.805445 0.464317
vt 0.858139 0.499295
vt 0.858139 0.531887
vt 0.805445 0.531887
vt 0.805445 0.499260
vt 0.805445 0.464317
vt 0.805445 0.499260
vt 0.754399 0.499260
vt 0.754399 0.464317
vt 0.805445 0.499260
vt 0.805445 0.531887
vt 0.754399 0.531887
vt 0.754399 0.499260
vt 0.754399 0.464317
vt 0.754399 0.499260
vt 0.701706 0.499295
vt 0.701706 0.464317
vt 0.754399 0.499260
vt 0.754399 0.531887
vt 0.701706 0.531887
vt 0.701706 0.499295
vt 0.701706 0.464317
vt 0.701706 0.499295
vt 0.646149 0.499353
vt 0.646149 0.464317
vt 0.701706 0.499295
vt 0.701706 0.531887
vt 0.646149 0.531887
vt 0.646149 0.499353
vt 0.646149 0.464317
vt 0.646149 0.499353
vt 0.590592 0.499411
vt 0.590592 0.464317
vt 0.646149 0.499353
vt 0.646149 0.531887
vt 0.590592 0.531887
vt 0.590592 0.499411
vt 0.590592 0.464317
vt 0.590592 0.499411
vt 0.537900 0.499447
vt 0.537900 0.464317
vt 0.590592 0.499411
vt 0.590592 0.531887
vt 0.537900 0.531887
vt 0.537900 0.499447
vt 0.537900 0.464317
vt 0.537900 0.499447
vt 0.486852 0.499447
vt 0.486852 0.464317
vt 0.537900 0.499447
vt 0.537900 0.531887
vt 0.486852 0.531887
vt 0.486852 0.499447
vt 0.486852 0.464317
vt 0.486852 0.499447
vt 0.434159 0.499411
vt 0.434159 0.464317
vt 0.486852 0.499447
vt 0.486852 0.531887
vt 0.434159 0.531887
vt 0.434159 0.499411
vt 0.969252 0.464317
vt 0.969252 0.499411
vt 0.913696 0.499353
vt 0.913696 0.464317
vt 0.969252 0.499411
vt 0.969252 0.531887
vt 0.913696 0.531887
vt 0.913696 0.499353
vt 0.913696 0.464317
vt 0.913696 0.499353
vt 0.858139 0.499295
vt 0.858139 0.464317
vt 0.913696 0.499353
vt 0.913696 0.531887
vt 0.858139 0.531887
vt 0.858139 0.499295
vt 0.858139 0.326687
vt 0.858139 0.357818
vt 0.805445 0.357891
vt 0.805445 0.326687
vt 0.858139 0.357818
vt 0.858139 0.388031
vt 0.805445 0.388031
vt 0.805445 0.357891
vt 0.805445 0.326687
vt 0.805445 0.357891
vt 0.754399 0.357891
vt 0.754399 0.326687
vt 0.805445 0.357891
vt 0.805445 0.388031
vt 0.754399 0.388031
vt 0.754399 0.357891
vt 0.754399 0.326687
vt 0.754399 0.357891
vt 0.701706 0.357818
vt 0.701706 0.326687
vt 0.754399 0.357891
vt 0.754399 0.388031
vt 0.701706 0.388031
vt 0.701706 0.357818
vt 0.701706 0.326687
vt 0.701706 0.357818
vt 0.646149 0.357698
vt 0.646149 0.326687
vt 0.701706 0.357818
vt 0.701706 0.388031
vt 0.646149 0.388031
vt 0.646149 0.357698
vt 0.646149 0.326687
vt 0.646149 0.357698
vt 0.590592 0.357576
vt 0.590592 0.326687
vt 0.646149 0.357698
vt 0.646149 0.388031
vt 0.590592 0.388031
vt 0.590592 0.357576
vt 0.590592 0.326687
vt 0.590592 0.357576
vt 0.537900 0.357501
vt 0.537900 0.326687
vt 0.590592 0.357576
vt 0.590592 0.388031
vt 0.537900 0.388031
vt 0.537900 0.357501
vt 0.537900 0.326687
vt 0.537900 0.357501
vt 0.486852 0.357501
vt 0.486852 0.326687
vt 0.537900 0.357501
vt 0.537900 0.388031
vt 0.486852 0.388031
vt 0.486852 0.357501
vt 0.486852 0.326687
vt 0.486852 0.357501
vt 0.434159 0.357576
vt 0.434159 0.326687
vt 0.486852 0.357501
vt 0.486852 0.388031
vt 0.434159 0.388031
vt 0.434159 0.357576
vt 0.969252 0.326687
vt 0.969252 0.357576
vt 0.913696 0.357698
vt 0.913696 0.326687
vt 0.969252 0.357576
vt 0.969252 0.388031
vt 0.913696 0.388031
vt 0.913696 0.357698
vt 0.913696 0.326687
vt 0.913696 0.357698
vt 0.858139 0.357818
vt 0.858139 0.326687
vt 0.913696 0.357698
vt 0.913696 0.388031
vt 0.858139 0.388031
vt 0.858139 0.357818
vt 0.858139 0.388031
vt 0.858139 0.421891
vt 0.805445 0.421880
vt 0.805445 0.388031
vt 0.858139 0.421891
vt 0.858139 0.464317
vt 0.805445 0.464317
vt 0.805445 0.421880
vt 0.805445 0.388031
vt 0.805445 0.421880
vt 0.754399 0.421880
vt 0.754399 0.388031
vt 0.805445 0.421880
vt 0.805445 0.464317
vt 0.754399 0.464317
vt 0.754399 0.421880
vt 0.754399 0.388031
vt 0.754399 0.421880
vt 0.701706 0.421891
vt 0.701706 0.388031
vt 0.754399 0.421880
vt 0.754399 0.464317
vt 0.701706 0.464317
vt 0.701706 0.421891
vt 0.701706 0.388031
vt 0.701706 0.421891
vt 0.646149 0.421909
vt 0.646149 0.388031
vt 0.701706 0.421891
vt 0.701706 0.464317
vt 0.646149 0.464317
vt 0.646149 0.421909
vt 0.646149 0.388031
vt 0.646149 0.421909
vt 0.590592 0.421926
vt 0.590592 0.388031
vt 0.646149 0.421909
vt 0.646149 0.464317
vt 0.590592 0.464317
vt 0.590592 0.421926
vt 0.590592 0.388031
vt 0.590592 0.421926
vt 0.537900 0.421937
vt 0.537900 0.388031
vt 0.590592 0.421926
vt 0.590592 0.464317
vt 0.537900 0.464317
vt 0.537900 0.421937
vt 0.537900 0.388031
vt 0.537900 0.421937
vt 0.486852 0.421937
vt 0.486852 0.388031
vt 0.537900 0.421937
vt 0.537900 0.464317
vt 0.486852 0.464317
vt 0.486852 0.421937
vt 0.486852 0.388031
vt 0.486852 0.421937
vt 0.434159 0.421926
vt 0.434159 0.388031
vt 0.486852 0.421937
vt 0.486852 0.464317
vt 0.434159 0.464317
vt 0.434159 0.421926
vt 0.969252 0.388031
vt 0.969252 0.421926
vt 0.913696 0.421909
vt 0.913696 0.388031
vt 0.969252 0.421926
vt 0.969252 0.464317
vt 0.913696 0.464317
vt 0.913696 0.421909
vt 0.913696 0.388031
vt 0.913696 0.421909
vt 0.858139 0.421891
vt 0.858139 0.388031
vt 0.913696 0.421909
vt 0.913696 0.464317
vt 0.858139 0.464317
vt 0.858139 0.421891
vt 0.858139 0.171341
vt 0.858139 0.207168
vt 0.805445 0.207168
vt 0.805445 0.171341
vt 0.858139 0.207168
vt 0.858139 0.261608
vt 0.805445 0.261608
vt 0.805445 0.207168
vt 0.805445 0.171341
vt 0.805445 0.207168
vt 0.754399 0.207168
vt 0.754399 0.171341
vt 0.805445 0.207168
vt 0.805445 0.261608
vt 0.754399 0.261608
vt 0.754399 0.207168
vt 0.754399 0.171341
vt 0.754399 0.207168
vt 0.701706 0.207168
vt 0.701706 0.171341
vt 0.754399 0.207168
vt 0.754399 0.261608
vt 0.701706 0.261608
vt 0.701706 0.207168
vt 0.701706 0.171341
vt 0.701706 0.207168
vt 0.646149 0.207168
vt 0.646149 0.171341
vt 0.701706 0.207168
vt 0.701706 0.261608
vt 0.646149 0.261608
vt 0.646149 0.207168
vt 0.646149 0.171341
vt 0.646149 0.207168
vt 0.590592 0.207168
vt 0.590592 0.171341
vt 0.646149 0.207168
vt 0.646149 0.261608
vt 0.590592 0.261608
vt 0.590592 0.207168
vt 0.590592 0.171341
vt 0.590592 0.207168
vt 0.537900 0.207168
vt 0.537900 0.171341
vt 0.590592 0.207168
vt 0.590592 0.261608
vt 0.537900 0.261608
vt 0.537900 0.207168
vt 0.537900 0.171341
vt 0.537900 0.207168
vt 0.486852 0.207168
vt 0.486852 0.171341
vt 0.537900 0.207168
vt 0.537900 0.261608
vt 0.486852 0.261608
vt 0.486852 0.207168
vt 0.486852 0.171341
vt 0.486852 0.207168
vt 0.434159 0.207168
vt 0.434159 0.171341
vt 0.486852 0.207168
vt 0.486852 0.261608
vt 0.434159 0.261608
vt 0.434159 0.207168
vt 0.969252 0.171341
vt 0.969252 0.207168
vt 0.913696 0.207168
vt 0.913696 0.171341
vt 0.969252 0.207168
vt 0.969252 0.261608
vt 0.913696 0.261608
vt 0.913696 0.207168
vt 0.913696 0.171341
vt 0.913696 0.207168
vt 0.858139 0.207168
vt 0.858139 0.171341
vt 0.913696 0.207168
vt 0.913696 0.261608
vt 0.858139 0.261608
vt 0.858139 0.207168
vt 0.858139 0.261608
vt 0.858139 0.287642
vt 0.805445 0.287638
vt 0.805445 0.261608
vt 0.858139 0.287642
vt 0.858139 0.326687
vt 0.805445 0.326687
vt 0.805445 0.287638
vt 0.805445 0.261608
vt 0.805445 0.287638
vt 0.754399 0.287638
vt 0.754399 0.261608
vt 0.805445 0.287638
vt 0.805445 0.326687
vt 0.754399 0.326687
vt 0.754399 0.287638
vt 0.754399 0.261608
vt 0.754399 0.287638
vt 0.701706 0.287642
vt 0.701706 0.261608
vt 0.754399 0.287638
vt 0.754399 0.326687
vt 0.701706 0.326687
vt 0.701706 0.287642
vt 0.701706 0.261608
vt 0.701706 0.287642
vt 0.646149 0.287648
vt 0.646149 0.261608
vt 0.701706 0.287642
vt 0.701706 0.326687
vt 0.646149 0.326687
vt 0.646149 0.287648
vt 0.646149 0.261608
vt 0.646149 0.287648
vt 0.590592 0.287655
vt 0.590592 0.261608
vt 0.646149 0.287648
vt 0.646149 0.326687
vt 0.590592 0.326687
vt 0.590592 0.287655
vt 0.590592 0.261608
vt 0.590592 0.287655
vt 0.537900 0.287659
vt 0.537900 0.261608
vt 0.590592 0.287655
vt 0.590592 0.326687
vt 0.537900 0.326687
vt 0.537900 0.287659
vt 0.537900 0.261608
vt 0.537900 0.287659
vt 0.486852 0.287659
vt 0.486852 0.261608
vt 0.537900 0.287659
vt 0.537900 0.326687
vt 0.486852 0.326687
vt 0.486852 0.287659
vt 0.486852 0.261608
vt 0.486852 0.287659
vt 0.434159 0.287655
vt 0.434159 0.261608
vt 0.486852 0.287659
vt 0.486852 0.326687
vt 0.434159 0.326687
vt 0.434159 0.287655
vt 0.969252 0.261608
vt 0.969252 0.287655
vt 0.913696 0.287648
vt 0.913696 0.261608
vt 0.969252 0.287655
vt 0.969252 0.326687
vt 0.913696 0.326687
vt 0.913696 0.287648
vt 0.913696 0.261608
vt 0.913696 0.287648
vt 0.858139 0.287642
vt 0.858139 0.261608
vt 0.913696 0.287648
vt 0.913696 0.326687
vt 0.858139 0.326687
vt 0.858139 0.287642
# num_uvs: 500

g stalag1
s 1

usemtl cavelarge
f 1/1/1 11/2/11 12/3/12 2/4/2 
f 2/5/2 12/6/12 13/7/13 3/8/3 
f 3/9/3 13/10/13 14/11/14 4/12/4 
f 4/13/4 14/14/14 15/15/15 5/16/5 
f 5/17/5 15/18/15 16/19/16 6/20/6 
f 6/21/6 16/22/16 17/23/17 7/24/7 
f 7/25/7 17/26/17 18/27/18 8/28/8 
f 8/29/8 18/30/18 19/31/19 9/32/9 
f 9/33/9 19/34/19 20/35/20 10/36/10 
f 10/37/10 20/38/20 11/39/11 1/40/1 
f 11/41/11 21/42/21 22/43/22 12/44/12 
f 12/45/12 22/46/22 23/47/23 13/48/13 
f 13/49/13 23/50/23 24/51/24 14/52/14 
f 14/53/14 24/54/24 25/55/25 15/56/15 
f 15/57/15 25/58/25 26/59/26 16/60/16 
f 16/61/16 26/62/26 27/63/27 17/64/17 
f 17/65/17 27/66/27 28/67/28 18/68/18 
f 18/69/18 28/70/28 29/71/29 19/72/19 
f 19/73/19 29/74/29 30/75/30 20/76/20 
f 20/77/20 30/78/30 21/79/21 11/80/11 
f 80/81/80 79/82/79 78/83/78 77/84/77 76/85/76 75/86/75 74/87/74 73/88/73 72/89/72 71/90/71 
f 1/91/1 2/92/2 3/93/3 4/94/4 5/95/5 6/96/6 7/97/7 8/98/8 9/99/9 10/100/10 
f 61/101/61 81/102/81 90/103/90 62/104/62 
f 81/105/81 71/106/71 72/107/72 90/108/90 
f 62/109/62 90/110/90 89/111/89 63/112/63 
f 90/113/90 72/114/72 73/115/73 89/116/89 
f 63/117/63 89/118/89 88/119/88 64/120/64 
f 89/121/89 73/122/73 74/123/74 88/124/88 
f 64/125/64 88/126/88 87/127/87 65/128/65 
f 88/129/88 74/130/74 75/131/75 87/132/87 
f 65/133/65 87/134/87 86/135/86 66/136/66 
f 87/137/87 75/138/75 76/139/76 86/140/86 
f 66/141/66 86/142/86 85/143/85 67/144/67 
f 86/145/86 76/146/76 77/147/77 85/148/85 
f 67/149/67 85/150/85 84/151/84 68/152/68 
f 85/153/85 77/154/77 78/155/78 84/156/84 
f 68/157/68 84/158/84 83/159/83 69/160/69 
f 84/161/84 78/162/78 79/163/79 83/164/83 
f 69/165/69 83/166/83 82/167/82 70/168/70 
f 83/169/83 79/170/79 80/171/80 82/172/82 
f 70/173/70 82/174/82 81/175/81 61/176/61 
f 82/177/82 80/178/80 71/179/71 81/180/81 
f 41/181/41 91/182/91 100/183/100 42/184/42 
f 91/185/91 51/186/51 52/187/52 100/188/100 
f 42/189/42 100/190/100 99/191/99 43/192/43 
f 100/193/100 52/194/52 53/195/53 99/196/99 
f 43/197/43 99/198/99 98/199/98 44/200/44 
f 99/201/99 53/202/53 54/203/54 98/204/98 
f 44/205/44 98/206/98 97/207/97 45/208/45 
f 98/209/98 54/210/54 55/211/55 97/212/97 
f 45/213/45 97/214/97 96/215/96 46/216/46 
f 97/217/97 55/218/55 56/219/56 96/220/96 
f 46/221/46 96/222/96 95/223/95 47/224/47 
f 96/225/96 56/226/56 57/227/57 95/228/95 
f 47/229/47 95/230/95 94/231/94 48/232/48 
f 95/233/95 57/234/57 58/235/58 94/236/94 
f 48/237/48 94/238/94 93/239/93 49/240/49 
f 94/241/94 58/242/58 59/243/59 93/244/93 
f 49/245/49 93/246/93 92/247/92 50/248/50 
f 93/249/93 59/250/59 60/251/60 92/252/92 
f 50/253/50 92/254/92 91/255/91 41/256/41 
f 92/257/92 60/258/60 51/259/51 91/260/91 
f 51/261/51 101/262/101 110/263/110 52/264/52 
f 101/265/101 61/266/61 62/267/62 110/268/110 
f 52/269/52 110/270/110 109/271/109 53/272/53 
f 110/273/110 62/274/62 63/275/63 109/276/109 
f 53/277/53 109/278/109 108/279/108 54/280/54 
f 109/281/109 63/282/63 64/283/64 108/284/108 
f 54/285/54 108/286/108 107/287/107 55/288/55 
f 108/289/108 64/290/64 65/291/65 107/292/107 
f 55/293/55 107/294/107 106/295/106 56/296/56 
f 107/297/107 65/298/65 66/299/66 106/300/106 
f 56/301/56 106/302/106 105/303/105 57/304/57 
f 106/305/106 66/306/66 67/307/67 105/308/105 
f 57/309/57 105/310/105 104/311/104 58/312/58 
f 105/313/105 67/314/67 68/315/68 104/316/104 
f 58/317/58 104/318/104 103/319/103 59/320/59 
f 104/321/104 68/322/68 69/323/69 103/324/103 
f 59/325/59 103/326/103 102/327/102 60/328/60 
f 103/329/103 69/330/69 70/331/70 102/332/102 
f 60/333/60 102/334/102 101/335/101 51/336/51 
f 102/337/102 70/338/70 61/339/61 101/340/101 
f 21/341/21 111/342/111 120/343/120 22/344/22 
f 111/345/111 31/346/31 32/347/32 120/348/120 
f 22/349/22 120/350/120 119/351/119 23/352/23 
f 120/353/120 32/354/32 33/355/33 119/356/119 
f 23/357/23 119/358/119 118/359/118 24/360/24 
f 119/361/119 33/362/33 34/363/34 118/364/118 
f 24/365/24 118/366/118 117/367/117 25/368/25 
f 118/369/118 34/370/34 35/371/35 117/372/117 
f 25/373/25 117/374/117 116/375/116 26/376/26 
f 117/377/117 35/378/35 36/379/36 116/380/116 
f 26/381/26 116/382/116 115/383/115 27/384/27 
f 116/385/116 36/386/36 37/387/37 115/388/115 
f 27/389/27 115/390/115 114/391/114 28/392/28 
f 115/393/115 37/394/37 38/395/38 114/396/114 
f 28/397/28 114/398/114 113/399/113 29/400/29 
f 114/401/114 38/402/38 39/403/39 113/404/113 
f 29/405/29 113/406/113 112/407/112 30/408/30 
f 113/409/113 39/410/39 40/411/40 112/412/112 
f 30/413/30 112/414/112 111/415/111 21/416/21 
f 112/417/112 40/418/40 31/419/31 111/420/111 
f 31/421/31 121/422/121 130/423/130 32/424/32 
f 121/425/121 41/426/41 42/427/42 130/428/130 
f 32/429/32 130/430/130 129/431/129 33/432/33 
f 130/433/130 42/434/42 43/435/43 129/436/129 
f 33/437/33 129/438/129 128/439/128 34/440/34 
f 129/441/129 43/442/43 44/443/44 128/444/128 
f 34/445/34 128/446/128 127/447/127 35/448/35 
f 128/449/128 44/450/44 45/451/45 127/452/127 
f 35/453/35 127/454/127 126/455/126 36/456/36 
f 127/457/127 45/458/45 46/459/46 126/460/126 
f 36/461/36 126/462/126 125/463/125 37/464/37 
f 126/465/126 46/466/46 47/467/47 125/468/125 
f 37/469/37 125/470/125 124/471/124 38/472/38 
f 125/473/125 47/474/47 48/475/48 124/476/124 
f 38/477/38 124/478/124 123/479/123 39/480/39 
f 124/481/124 48/482/48 49/483/49 123/484/123 
f 39/485/39 123/486/123 122/487/122 40/488/40 
f 123/489/123 49/490/49 50/491/50 122/492/122 
f 40/493/40 122/494/122 121/495/121 31/496/31 
f 122/497/122 50/498/50 41/499/41 121/500/121 
# num_faces: 122

