# Wavefront OBJ file
# Creator: Ultimate Unwrap3D Pro v3.22
# Website: http://www.unwrap3d.com
# Time: Fri Jul 09 22:33:22 2010
# num_vertices: 130
# num_vertex_normals: 130
# num_uvs: 500
# num_faces: 122
# num_groups: 1

mtllib stalag3.mtl

v -1.647799 0.348923 5.465590
v -1.997198 0.252472 5.728930
v -2.428997 0.133270 5.728930
v -2.778498 0.036819 5.465590
v -2.911898 0.000000 5.039490
v -2.778498 0.036819 4.613400
v -2.428997 0.133270 4.350060
v -1.997198 0.252472 4.350060
v -1.647799 0.348923 4.613400
v -1.514297 0.385750 5.039490
v -1.865398 16.797310 2.955780
v -3.238998 16.418190 3.991000
v -4.936697 15.949593 3.991000
v -6.310198 15.570473 2.955780
v -6.834797 15.425682 1.280747
v -6.310198 15.570473 -0.394290
v -4.936697 15.949593 -1.429510
v -3.238998 16.418190 -1.429510
v -1.865398 16.797310 -0.394290
v -1.340698 16.942142 1.280747
v 2.202202 27.539631 1.230455
v 0.038301 27.993031 2.836780
v -2.636497 28.553331 2.836780
v -4.800497 29.006632 1.230455
v -5.626997 29.179731 -1.368630
v -4.800497 29.006632 -3.967720
v -2.636497 28.553331 -5.574050
v 0.038301 27.993031 -5.574050
v 2.202202 27.539631 -3.967720
v 3.028803 27.366531 -1.368630
v 5.661602 46.864132 3.727220
v 3.393602 46.864132 5.374980
v 0.590302 46.864132 5.374980
v -1.677597 46.864132 3.727230
v -2.543898 46.864132 1.061090
v -1.677597 46.864132 -1.605050
v 0.590302 46.864132 -3.252800
v 3.393602 46.864132 -3.252800
v 5.661602 46.864132 -1.605050
v 6.527903 46.864132 1.061090
v 3.590202 64.883430 5.528560
v 0.909903 64.883430 7.475960
v -2.403198 64.883430 7.475960
v -5.083597 64.883430 5.528560
v -6.107397 64.883430 2.377590
v -5.083597 64.883430 -0.773380
v -2.403198 64.883430 -2.720780
v 0.909903 64.883430 -2.720780
v 3.590202 64.883430 -0.773380
v 4.614101 64.883430 2.377590
v 7.035501 77.503937 6.359650
v 3.189703 77.503937 9.153811
v -1.563898 77.503937 9.153811
v -5.409798 77.503937 6.359650
v -6.878698 77.503937 1.838606
v -5.409798 77.503937 -2.682440
v -1.563898 77.503937 -5.476590
v 3.189703 77.503937 -5.476590
v 7.035501 77.503937 -2.682440
v 8.504601 77.503937 1.838606
v 5.301601 98.239136 2.660290
v 2.485502 98.239136 4.706310
v -0.995398 98.239136 4.706310
v -3.811598 98.239136 2.660290
v -4.887197 98.239136 -0.650250
v -3.811598 98.239136 -3.960790
v -0.995398 98.239136 -6.006810
v 2.485502 98.239136 -6.006810
v 5.301601 98.239136 -3.960790
v 6.377203 98.239136 -0.650250
v 6.049103 118.974533 3.226310
v 2.026602 118.974533 6.148860
v -2.945498 118.974533 6.148860
v -6.968098 118.974533 3.226310
v -8.504599 118.974533 -1.502470
v -6.968098 118.974533 -6.231250
v -2.945498 118.974533 -9.153811
v 2.026602 118.974533 -9.153811
v 6.049103 118.974533 -6.231250
v 7.585602 118.974533 -1.502470
v 5.732403 109.382538 2.816250
v 7.197102 109.402527 -1.682070
v 5.737202 109.421524 -6.183830
v 1.908003 109.433533 -8.967810
v -2.826899 109.433533 -8.967810
v -6.656097 109.421524 -6.183830
v -8.115997 109.402527 -1.682070
v -6.651398 109.382538 2.816260
v -2.823997 109.371536 5.594670
v 1.905102 109.371536 5.594670
v 3.702303 68.455933 6.046630
v 4.751701 68.435730 2.811810
v 3.701002 68.415230 -0.422110
v 0.952002 68.402527 -2.420330
v -2.445398 68.402527 -2.420330
v -5.194298 68.415230 -0.422110
v -6.244997 68.435730 2.811810
v -5.195599 68.455933 6.046630
v -2.446098 68.468330 8.046310
v 0.952902 68.468330 8.046310
v 4.909101 87.068832 4.021010
v 5.924303 87.073425 0.895687
v 4.908703 87.078125 -2.229330
v 2.250402 87.081024 -4.160530
v -1.035198 87.081024 -4.160530
v -3.693499 87.078125 -2.229330
v -4.709097 87.073425 0.895687
v -3.693897 87.068832 4.021010
v -1.035498 87.065933 5.952730
v 2.250702 87.065933 5.952730
v 3.876202 34.812332 1.329726
v 4.734303 34.632530 -1.368630
v 3.876202 34.812332 -4.067000
v 1.629602 35.282928 -5.734670
v -1.147398 35.864632 -5.734670
v -3.393997 36.335232 -4.067000
v -4.252098 36.515030 -1.368630
v -3.393997 36.335232 1.329733
v -1.147398 35.864632 2.997410
v 1.629602 35.282928 2.997410
v 3.433102 55.285030 5.020880
v 4.289303 55.286232 2.385610
v 3.433102 55.287533 -0.249660
v 1.191502 55.288330 -1.878340
v -1.579298 55.288330 -1.878340
v -3.820898 55.287533 -0.249660
v -4.677097 55.286232 2.385610
v -3.820898 55.285030 5.020880
v -1.579298 55.284233 6.649570
v 1.191502 55.284233 6.649570
# num_vertices: 130

vn 0.797465 -0.344742 0.495180
vn 0.384800 -0.345708 0.855813
vn -0.179362 -0.427962 0.885820
vn -0.625699 -0.558292 0.544803
vn -0.739426 -0.673237 -0.000373
vn -0.497233 -0.720383 -0.483536
vn -0.056784 -0.691386 -0.720251
vn 0.397488 -0.612240 -0.683495
vn 0.748472 -0.511254 -0.422384
vn 0.911183 -0.411976 0.004644
vn 0.816162 -0.062947 0.574384
vn 0.301236 0.062418 0.951505
vn -0.338198 0.102368 0.935491
vn -0.821595 0.041134 0.568586
vn -0.996836 -0.079415 -0.003468
vn -0.779751 -0.212636 -0.588876
vn -0.233212 -0.310633 -0.921477
vn 0.373067 -0.337710 -0.864160
vn 0.807156 -0.294695 -0.511522
vn 0.980159 -0.198054 0.007908
vn 0.796922 -0.206742 0.567602
vn 0.306321 -0.043678 0.950926
vn -0.326445 0.097661 0.940157
vn -0.808679 0.157744 0.566706
vn -0.990621 0.136603 -0.003190
vn -0.806206 0.040034 -0.590279
vn -0.284293 -0.106572 -0.952796
vn 0.339035 -0.240442 -0.909529
vn 0.786876 -0.311892 -0.532494
vn 0.952553 -0.304334 0.004924
vn 0.801732 -0.055412 0.595110
vn 0.288654 -0.146390 0.946176
vn -0.318537 -0.179917 0.930679
vn -0.804190 -0.141487 0.577286
vn -0.999104 -0.042252 -0.002260
vn -0.799611 0.078027 -0.595427
vn -0.285140 0.166260 -0.943956
vn 0.319069 0.190892 -0.928307
vn 0.803389 0.149350 -0.576420
vn 0.998364 0.057131 0.002433
vn 0.806959 -0.077105 0.585552
vn 0.307485 -0.112997 0.944820
vn -0.306377 -0.130491 0.942924
vn -0.803061 -0.123037 0.583057
vn -0.995646 -0.093211 -0.000251
vn -0.807865 -0.052316 -0.587041
vn -0.308835 -0.016122 -0.950979
vn 0.309337 0.001535 -0.950951
vn 0.809136 -0.006131 -0.587589
vn 0.999343 -0.036244 -0.000231
vn 0.807741 0.003204 0.589529
vn 0.306545 0.073423 0.949020
vn -0.308098 0.119049 0.943877
vn -0.803877 0.120796 0.582400
vn -0.997056 0.076680 -0.000560
vn -0.809781 0.003995 -0.586719
vn -0.310839 -0.067202 -0.948084
vn 0.305245 -0.108659 -0.946054
vn 0.804316 -0.106870 -0.584513
vn 0.997904 -0.064689 0.001593
vn 0.809160 0.001731 0.587586
vn 0.309401 0.019763 0.950726
vn -0.308403 -0.009464 0.951209
vn -0.806200 -0.073997 0.586998
vn -0.988924 -0.148416 0.001207
vn -0.792283 -0.204551 -0.574845
vn -0.300710 -0.222374 -0.927428
vn 0.304534 -0.195479 -0.932227
vn 0.802722 -0.132620 -0.581420
vn 0.998381 -0.056877 0.000526
vn 0.730725 0.428786 0.531209
vn 0.279819 0.423733 0.861482
vn -0.279820 0.423679 0.861509
vn -0.730779 0.428651 0.531244
vn -0.899613 0.436687 0.000315
vn -0.724781 0.444699 -0.526246
vn -0.276117 0.449654 -0.849453
vn 0.276109 0.449706 -0.849428
vn 0.724725 0.444840 -0.526204
vn 0.899529 0.436861 0.000325
vn 0.808084 -0.045617 0.587299
vn 0.998383 -0.056838 0.000503
vn 0.806526 -0.088019 -0.584610
vn 0.307897 -0.126470 -0.942977
vn -0.304304 -0.157505 -0.939463
vn -0.797372 -0.170330 -0.578952
vn -0.987024 -0.160564 0.001322
vn -0.801179 -0.131020 0.583906
vn -0.306910 -0.092118 0.947270
vn 0.308629 -0.059168 0.949340
vn 0.790035 -0.207043 0.577042
vn 0.976840 -0.213957 0.002475
vn 0.794585 -0.191532 -0.576151
vn 0.304128 -0.149442 -0.940836
vn -0.310117 -0.101815 -0.945231
vn -0.808469 -0.065113 -0.584926
vn -0.998535 -0.054114 0.000217
vn -0.807165 -0.074641 0.585588
vn -0.307640 -0.119635 0.943952
vn 0.303002 -0.170992 0.937524
vn 0.796886 0.177319 0.577521
vn 0.993781 0.111346 -0.000960
vn 0.808056 0.042819 -0.587548
vn 0.308839 -0.001427 -0.951113
vn -0.309286 -0.004123 -0.950960
vn -0.808464 0.036006 -0.587443
vn -0.994637 0.103424 -0.000945
vn -0.797919 0.171327 0.577903
vn -0.302691 0.213761 0.928808
vn 0.302109 0.215950 0.928491
vn 0.782118 -0.209989 0.586682
vn 0.982352 -0.187038 0.000572
vn 0.805172 -0.094989 -0.585384
vn 0.321540 0.033726 -0.946295
vn -0.284034 0.149700 -0.947056
vn -0.783777 0.204147 -0.586530
vn -0.984792 0.173734 -0.000469
vn -0.808025 0.074874 0.584371
vn -0.324199 -0.050558 0.944637
vn 0.282169 -0.157813 0.946296
vn 0.807507 0.038847 0.588577
vn 0.993638 0.112607 0.001824
vn 0.802309 0.127020 -0.583237
vn 0.306267 0.078293 -0.948721
vn -0.309697 -0.017566 -0.950673
vn -0.801832 -0.123539 -0.584639
vn -0.980506 -0.196479 -0.001769
vn -0.790535 -0.210827 0.574984
vn -0.302762 -0.162854 0.939049
vn 0.309330 -0.067564 0.948552
# num_vertex_normals: 130

vt 0.858139 0.076329
vt 0.858139 0.130203
vt 0.805445 0.130203
vt 0.805445 0.076329
vt 0.805445 0.076329
vt 0.805445 0.130203
vt 0.754399 0.130203
vt 0.754399 0.076329
vt 0.754399 0.076329
vt 0.754399 0.130203
vt 0.701706 0.130203
vt 0.701706 0.076329
vt 0.701706 0.076329
vt 0.701706 0.130203
vt 0.646149 0.130203
vt 0.646149 0.076329
vt 0.646149 0.076329
vt 0.646149 0.130203
vt 0.590592 0.130203
vt 0.590592 0.076329
vt 0.590592 0.076329
vt 0.590592 0.130203
vt 0.537900 0.130203
vt 0.537900 0.076329
vt 0.537900 0.076329
vt 0.537900 0.130203
vt 0.486852 0.130203
vt 0.486852 0.076329
vt 0.486852 0.076329
vt 0.486852 0.130203
vt 0.434159 0.130203
vt 0.434159 0.076329
vt 0.969252 0.076329
vt 0.969252 0.130203
vt 0.913696 0.130203
vt 0.913696 0.076329
vt 0.913696 0.076329
vt 0.913696 0.130203
vt 0.858139 0.130203
vt 0.858139 0.076329
vt 0.858139 0.130203
vt 0.858139 0.184076
vt 0.805445 0.184076
vt 0.805445 0.130203
vt 0.805445 0.130203
vt 0.805445 0.184076
vt 0.754399 0.184076
vt 0.754399 0.130203
vt 0.754399 0.130203
vt 0.754399 0.184076
vt 0.701706 0.184076
vt 0.701706 0.130203
vt 0.701706 0.130203
vt 0.701706 0.184076
vt 0.646149 0.184076
vt 0.646149 0.130203
vt 0.646149 0.130203
vt 0.646149 0.184076
vt 0.590592 0.184076
vt 0.590592 0.130203
vt 0.590592 0.130203
vt 0.590592 0.184076
vt 0.537900 0.184076
vt 0.537900 0.130203
vt 0.537900 0.130203
vt 0.537900 0.184076
vt 0.486852 0.184076
vt 0.486852 0.130203
vt 0.486852 0.130203
vt 0.486852 0.184076
vt 0.434159 0.184076
vt 0.434159 0.130203
vt 0.969252 0.130203
vt 0.969252 0.184076
vt 0.913696 0.184076
vt 0.913696 0.130203
vt 0.913696 0.130203
vt 0.913696 0.184076
vt 0.858139 0.184076
vt 0.858139 0.130203
vt 0.913696 0.531887
vt 0.969252 0.531887
vt 0.486852 0.531887
vt 0.537900 0.531887
vt 0.590592 0.531887
vt 0.646149 0.531887
vt 0.701706 0.531887
vt 0.754399 0.531887
vt 0.805445 0.531887
vt 0.858139 0.531887
vt 0.858139 0.076329
vt 0.805445 0.076329
vt 0.754399 0.076329
vt 0.701706 0.076329
vt 0.646149 0.076329
vt 0.590592 0.076329
vt 0.537900 0.076329
vt 0.486852 0.076329
vt 0.969252 0.076329
vt 0.913696 0.076329
vt 0.858139 0.464317
vt 0.858139 0.499295
vt 0.805445 0.499260
vt 0.805445 0.464317
vt 0.858139 0.499295
vt 0.858139 0.531887
vt 0.805445 0.531887
vt 0.805445 0.499260
vt 0.805445 0.464317
vt 0.805445 0.499260
vt 0.754399 0.499260
vt 0.754399 0.464317
vt 0.805445 0.499260
vt 0.805445 0.531887
vt 0.754399 0.531887
vt 0.754399 0.499260
vt 0.754399 0.464317
vt 0.754399 0.499260
vt 0.701706 0.499295
vt 0.701706 0.464317
vt 0.754399 0.499260
vt 0.754399 0.531887
vt 0.701706 0.531887
vt 0.701706 0.499295
vt 0.701706 0.464317
vt 0.701706 0.499295
vt 0.646149 0.499353
vt 0.646149 0.464317
vt 0.701706 0.499295
vt 0.701706 0.531887
vt 0.646149 0.531887
vt 0.646149 0.499353
vt 0.646149 0.464317
vt 0.646149 0.499353
vt 0.590592 0.499411
vt 0.590592 0.464317
vt 0.646149 0.499353
vt 0.646149 0.531887
vt 0.590592 0.531887
vt 0.590592 0.499411
vt 0.590592 0.464317
vt 0.590592 0.499411
vt 0.537900 0.499447
vt 0.537900 0.464317
vt 0.590592 0.499411
vt 0.590592 0.531887
vt 0.537900 0.531887
vt 0.537900 0.499447
vt 0.537900 0.464317
vt 0.537900 0.499447
vt 0.486852 0.499447
vt 0.486852 0.464317
vt 0.537900 0.499447
vt 0.537900 0.531887
vt 0.486852 0.531887
vt 0.486852 0.499447
vt 0.486852 0.464317
vt 0.486852 0.499447
vt 0.434159 0.499411
vt 0.434159 0.464317
vt 0.486852 0.499447
vt 0.486852 0.531887
vt 0.434159 0.531887
vt 0.434159 0.499411
vt 0.969252 0.464317
vt 0.969252 0.499411
vt 0.913696 0.499353
vt 0.913696 0.464317
vt 0.969252 0.499411
vt 0.969252 0.531887
vt 0.913696 0.531887
vt 0.913696 0.499353
vt 0.913696 0.464317
vt 0.913696 0.499353
vt 0.858139 0.499295
vt 0.858139 0.464317
vt 0.913696 0.499353
vt 0.913696 0.531887
vt 0.858139 0.531887
vt 0.858139 0.499295
vt 0.858139 0.326687
vt 0.858139 0.357818
vt 0.805445 0.357891
vt 0.805445 0.326687
vt 0.858139 0.357818
vt 0.858139 0.388031
vt 0.805445 0.388031
vt 0.805445 0.357891
vt 0.805445 0.326687
vt 0.805445 0.357891
vt 0.754399 0.357891
vt 0.754399 0.326687
vt 0.805445 0.357891
vt 0.805445 0.388031
vt 0.754399 0.388031
vt 0.754399 0.357891
vt 0.754399 0.326687
vt 0.754399 0.357891
vt 0.701706 0.357818
vt 0.701706 0.326687
vt 0.754399 0.357891
vt 0.754399 0.388031
vt 0.701706 0.388031
vt 0.701706 0.357818
vt 0.701706 0.326687
vt 0.701706 0.357818
vt 0.646149 0.357698
vt 0.646149 0.326687
vt 0.701706 0.357818
vt 0.701706 0.388031
vt 0.646149 0.388031
vt 0.646149 0.357698
vt 0.646149 0.326687
vt 0.646149 0.357698
vt 0.590592 0.357576
vt 0.590592 0.326687
vt 0.646149 0.357698
vt 0.646149 0.388031
vt 0.590592 0.388031
vt 0.590592 0.357576
vt 0.590592 0.326687
vt 0.590592 0.357576
vt 0.537900 0.357501
vt 0.537900 0.326687
vt 0.590592 0.357576
vt 0.590592 0.388031
vt 0.537900 0.388031
vt 0.537900 0.357501
vt 0.537900 0.326687
vt 0.537900 0.357501
vt 0.486852 0.357501
vt 0.486852 0.326687
vt 0.537900 0.357501
vt 0.537900 0.388031
vt 0.486852 0.388031
vt 0.486852 0.357501
vt 0.486852 0.326687
vt 0.486852 0.357501
vt 0.434159 0.357576
vt 0.434159 0.326687
vt 0.486852 0.357501
vt 0.486852 0.388031
vt 0.434159 0.388031
vt 0.434159 0.357576
vt 0.969252 0.326687
vt 0.969252 0.357576
vt 0.913696 0.357698
vt 0.913696 0.326687
vt 0.969252 0.357576
vt 0.969252 0.388031
vt 0.913696 0.388031
vt 0.913696 0.357698
vt 0.913696 0.326687
vt 0.913696 0.357698
vt 0.858139 0.357818
vt 0.858139 0.326687
vt 0.913696 0.357698
vt 0.913696 0.388031
vt 0.858139 0.388031
vt 0.858139 0.357818
vt 0.858139 0.388031
vt 0.858139 0.421891
vt 0.805445 0.421880
vt 0.805445 0.388031
vt 0.858139 0.421891
vt 0.858139 0.464317
vt 0.805445 0.464317
vt 0.805445 0.421880
vt 0.805445 0.388031
vt 0.805445 0.421880
vt 0.754399 0.421880
vt 0.754399 0.388031
vt 0.805445 0.421880
vt 0.805445 0.464317
vt 0.754399 0.464317
vt 0.754399 0.421880
vt 0.754399 0.388031
vt 0.754399 0.421880
vt 0.701706 0.421891
vt 0.701706 0.388031
vt 0.754399 0.421880
vt 0.754399 0.464317
vt 0.701706 0.464317
vt 0.701706 0.421891
vt 0.701706 0.388031
vt 0.701706 0.421891
vt 0.646149 0.421909
vt 0.646149 0.388031
vt 0.701706 0.421891
vt 0.701706 0.464317
vt 0.646149 0.464317
vt 0.646149 0.421909
vt 0.646149 0.388031
vt 0.646149 0.421909
vt 0.590592 0.421926
vt 0.590592 0.388031
vt 0.646149 0.421909
vt 0.646149 0.464317
vt 0.590592 0.464317
vt 0.590592 0.421926
vt 0.590592 0.388031
vt 0.590592 0.421926
vt 0.537900 0.421937
vt 0.537900 0.388031
vt 0.590592 0.421926
vt 0.590592 0.464317
vt 0.537900 0.464317
vt 0.537900 0.421937
vt 0.537900 0.388031
vt 0.537900 0.421937
vt 0.486852 0.421937
vt 0.486852 0.388031
vt 0.537900 0.421937
vt 0.537900 0.464317
vt 0.486852 0.464317
vt 0.486852 0.421937
vt 0.486852 0.388031
vt 0.486852 0.421937
vt 0.434159 0.421926
vt 0.434159 0.388031
vt 0.486852 0.421937
vt 0.486852 0.464317
vt 0.434159 0.464317
vt 0.434159 0.421926
vt 0.969252 0.388031
vt 0.969252 0.421926
vt 0.913696 0.421909
vt 0.913696 0.388031
vt 0.969252 0.421926
vt 0.969252 0.464317
vt 0.913696 0.464317
vt 0.913696 0.421909
vt 0.913696 0.388031
vt 0.913696 0.421909
vt 0.858139 0.421891
vt 0.858139 0.388031
vt 0.913696 0.421909
vt 0.913696 0.464317
vt 0.858139 0.464317
vt 0.858139 0.421891
vt 0.858139 0.184076
vt 0.858139 0.220652
vt 0.805445 0.220652
vt 0.805445 0.184076
vt 0.858139 0.220652
vt 0.858139 0.246666
vt 0.805445 0.246666
vt 0.805445 0.220652
vt 0.805445 0.184076
vt 0.805445 0.220652
vt 0.754399 0.220652
vt 0.754399 0.184076
vt 0.805445 0.220652
vt 0.805445 0.246666
vt 0.754399 0.246666
vt 0.754399 0.220652
vt 0.754399 0.184076
vt 0.754399 0.220652
vt 0.701706 0.220652
vt 0.701706 0.184076
vt 0.754399 0.220652
vt 0.754399 0.246666
vt 0.701706 0.246666
vt 0.701706 0.220652
vt 0.701706 0.184076
vt 0.701706 0.220652
vt 0.646149 0.220652
vt 0.646149 0.184076
vt 0.701706 0.220652
vt 0.701706 0.246666
vt 0.646149 0.246666
vt 0.646149 0.220652
vt 0.646149 0.184076
vt 0.646149 0.220652
vt 0.590592 0.220652
vt 0.590592 0.184076
vt 0.646149 0.220652
vt 0.646149 0.246666
vt 0.590592 0.246666
vt 0.590592 0.220652
vt 0.590592 0.184076
vt 0.590592 0.220652
vt 0.537900 0.220652
vt 0.537900 0.184076
vt 0.590592 0.220652
vt 0.590592 0.246666
vt 0.537900 0.246666
vt 0.537900 0.220652
vt 0.537900 0.184076
vt 0.537900 0.220652
vt 0.486852 0.220652
vt 0.486852 0.184076
vt 0.537900 0.220652
vt 0.537900 0.246666
vt 0.486852 0.246666
vt 0.486852 0.220652
vt 0.486852 0.184076
vt 0.486852 0.220652
vt 0.434159 0.220652
vt 0.434159 0.184076
vt 0.486852 0.220652
vt 0.486852 0.246666
vt 0.434159 0.246666
vt 0.434159 0.220652
vt 0.969252 0.184076
vt 0.969252 0.220652
vt 0.913696 0.220652
vt 0.913696 0.184076
vt 0.969252 0.220652
vt 0.969252 0.246666
vt 0.913696 0.246666
vt 0.913696 0.220652
vt 0.913696 0.184076
vt 0.913696 0.220652
vt 0.858139 0.220652
vt 0.858139 0.184076
vt 0.913696 0.220652
vt 0.913696 0.246666
vt 0.858139 0.246666
vt 0.858139 0.220652
vt 0.858139 0.246666
vt 0.858139 0.287642
vt 0.805445 0.287638
vt 0.805445 0.246666
vt 0.858139 0.287642
vt 0.858139 0.326687
vt 0.805445 0.326687
vt 0.805445 0.287638
vt 0.805445 0.246666
vt 0.805445 0.287638
vt 0.754399 0.287638
vt 0.754399 0.246666
vt 0.805445 0.287638
vt 0.805445 0.326687
vt 0.754399 0.326687
vt 0.754399 0.287638
vt 0.754399 0.246666
vt 0.754399 0.287638
vt 0.701706 0.287642
vt 0.701706 0.246666
vt 0.754399 0.287638
vt 0.754399 0.326687
vt 0.701706 0.326687
vt 0.701706 0.287642
vt 0.701706 0.246666
vt 0.701706 0.287642
vt 0.646149 0.287648
vt 0.646149 0.246666
vt 0.701706 0.287642
vt 0.701706 0.326687
vt 0.646149 0.326687
vt 0.646149 0.287648
vt 0.646149 0.246666
vt 0.646149 0.287648
vt 0.590592 0.287655
vt 0.590592 0.246666
vt 0.646149 0.287648
vt 0.646149 0.326687
vt 0.590592 0.326687
vt 0.590592 0.287655
vt 0.590592 0.246666
vt 0.590592 0.287655
vt 0.537900 0.287659
vt 0.537900 0.246666
vt 0.590592 0.287655
vt 0.590592 0.326687
vt 0.537900 0.326687
vt 0.537900 0.287659
vt 0.537900 0.246666
vt 0.537900 0.287659
vt 0.486852 0.287659
vt 0.486852 0.246666
vt 0.537900 0.287659
vt 0.537900 0.326687
vt 0.486852 0.326687
vt 0.486852 0.287659
vt 0.486852 0.246666
vt 0.486852 0.287659
vt 0.434159 0.287655
vt 0.434159 0.246666
vt 0.486852 0.287659
vt 0.486852 0.326687
vt 0.434159 0.326687
vt 0.434159 0.287655
vt 0.969252 0.246666
vt 0.969252 0.287655
vt 0.913696 0.287648
vt 0.913696 0.246666
vt 0.969252 0.287655
vt 0.969252 0.326687
vt 0.913696 0.326687
vt 0.913696 0.287648
vt 0.913696 0.246666
vt 0.913696 0.287648
vt 0.858139 0.287642
vt 0.858139 0.246666
vt 0.913696 0.287648
vt 0.913696 0.326687
vt 0.858139 0.326687
vt 0.858139 0.287642
# num_uvs: 500

g stalag1
s 1

usemtl cavelarge
f 1/1/1 11/2/11 12/3/12 2/4/2 
f 2/5/2 12/6/12 13/7/13 3/8/3 
f 3/9/3 13/10/13 14/11/14 4/12/4 
f 4/13/4 14/14/14 15/15/15 5/16/5 
f 5/17/5 15/18/15 16/19/16 6/20/6 
f 6/21/6 16/22/16 17/23/17 7/24/7 
f 7/25/7 17/26/17 18/27/18 8/28/8 
f 8/29/8 18/30/18 19/31/19 9/32/9 
f 9/33/9 19/34/19 20/35/20 10/36/10 
f 10/37/10 20/38/20 11/39/11 1/40/1 
f 11/41/11 21/42/21 22/43/22 12/44/12 
f 12/45/12 22/46/22 23/47/23 13/48/13 
f 13/49/13 23/50/23 24/51/24 14/52/14 
f 14/53/14 24/54/24 25/55/25 15/56/15 
f 15/57/15 25/58/25 26/59/26 16/60/16 
f 16/61/16 26/62/26 27/63/27 17/64/17 
f 17/65/17 27/66/27 28/67/28 18/68/18 
f 18/69/18 28/70/28 29/71/29 19/72/19 
f 19/73/19 29/74/29 30/75/30 20/76/20 
f 20/77/20 30/78/30 21/79/21 11/80/11 
f 80/81/80 79/82/79 78/83/78 77/84/77 76/85/76 75/86/75 74/87/74 73/88/73 72/89/72 71/90/71 
f 1/91/1 2/92/2 3/93/3 4/94/4 5/95/5 6/96/6 7/97/7 8/98/8 9/99/9 10/100/10 
f 61/101/61 81/102/81 90/103/90 62/104/62 
f 81/105/81 71/106/71 72/107/72 90/108/90 
f 62/109/62 90/110/90 89/111/89 63/112/63 
f 90/113/90 72/114/72 73/115/73 89/116/89 
f 63/117/63 89/118/89 88/119/88 64/120/64 
f 89/121/89 73/122/73 74/123/74 88/124/88 
f 64/125/64 88/126/88 87/127/87 65/128/65 
f 88/129/88 74/130/74 75/131/75 87/132/87 
f 65/133/65 87/134/87 86/135/86 66/136/66 
f 87/137/87 75/138/75 76/139/76 86/140/86 
f 66/141/66 86/142/86 85/143/85 67/144/67 
f 86/145/86 76/146/76 77/147/77 85/148/85 
f 67/149/67 85/150/85 84/151/84 68/152/68 
f 85/153/85 77/154/77 78/155/78 84/156/84 
f 68/157/68 84/158/84 83/159/83 69/160/69 
f 84/161/84 78/162/78 79/163/79 83/164/83 
f 69/165/69 83/166/83 82/167/82 70/168/70 
f 83/169/83 79/170/79 80/171/80 82/172/82 
f 70/173/70 82/174/82 81/175/81 61/176/61 
f 82/177/82 80/178/80 71/179/71 81/180/81 
f 41/181/41 91/182/91 100/183/100 42/184/42 
f 91/185/91 51/186/51 52/187/52 100/188/100 
f 42/189/42 100/190/100 99/191/99 43/192/43 
f 100/193/100 52/194/52 53/195/53 99/196/99 
f 43/197/43 99/198/99 98/199/98 44/200/44 
f 99/201/99 53/202/53 54/203/54 98/204/98 
f 44/205/44 98/206/98 97/207/97 45/208/45 
f 98/209/98 54/210/54 55/211/55 97/212/97 
f 45/213/45 97/214/97 96/215/96 46/216/46 
f 97/217/97 55/218/55 56/219/56 96/220/96 
f 46/221/46 96/222/96 95/223/95 47/224/47 
f 96/225/96 56/226/56 57/227/57 95/228/95 
f 47/229/47 95/230/95 94/231/94 48/232/48 
f 95/233/95 57/234/57 58/235/58 94/236/94 
f 48/237/48 94/238/94 93/239/93 49/240/49 
f 94/241/94 58/242/58 59/243/59 93/244/93 
f 49/245/49 93/246/93 92/247/92 50/248/50 
f 93/249/93 59/250/59 60/251/60 92/252/92 
f 50/253/50 92/254/92 91/255/91 41/256/41 
f 92/257/92 60/258/60 51/259/51 91/260/91 
f 51/261/51 101/262/101 110/263/110 52/264/52 
f 101/265/101 61/266/61 62/267/62 110/268/110 
f 52/269/52 110/270/110 109/271/109 53/272/53 
f 110/273/110 62/274/62 63/275/63 109/276/109 
f 53/277/53 109/278/109 108/279/108 54/280/54 
f 109/281/109 63/282/63 64/283/64 108/284/108 
f 54/285/54 108/286/108 107/287/107 55/288/55 
f 108/289/108 64/290/64 65/291/65 107/292/107 
f 55/293/55 107/294/107 106/295/106 56/296/56 
f 107/297/107 65/298/65 66/299/66 106/300/106 
f 56/301/56 106/302/106 105/303/105 57/304/57 
f 106/305/106 66/306/66 67/307/67 105/308/105 
f 57/309/57 105/310/105 104/311/104 58/312/58 
f 105/313/105 67/314/67 68/315/68 104/316/104 
f 58/317/58 104/318/104 103/319/103 59/320/59 
f 104/321/104 68/322/68 69/323/69 103/324/103 
f 59/325/59 103/326/103 102/327/102 60/328/60 
f 103/329/103 69/330/69 70/331/70 102/332/102 
f 60/333/60 102/334/102 101/335/101 51/336/51 
f 102/337/102 70/338/70 61/339/61 101/340/101 
f 21/341/21 111/342/111 120/343/120 22/344/22 
f 111/345/111 31/346/31 32/347/32 120/348/120 
f 22/349/22 120/350/120 119/351/119 23/352/23 
f 120/353/120 32/354/32 33/355/33 119/356/119 
f 23/357/23 119/358/119 118/359/118 24/360/24 
f 119/361/119 33/362/33 34/363/34 118/364/118 
f 24/365/24 118/366/118 117/367/117 25/368/25 
f 118/369/118 34/370/34 35/371/35 117/372/117 
f 25/373/25 117/374/117 116/375/116 26/376/26 
f 117/377/117 35/378/35 36/379/36 116/380/116 
f 26/381/26 116/382/116 115/383/115 27/384/27 
f 116/385/116 36/386/36 37/387/37 115/388/115 
f 27/389/27 115/390/115 114/391/114 28/392/28 
f 115/393/115 37/394/37 38/395/38 114/396/114 
f 28/397/28 114/398/114 113/399/113 29/400/29 
f 114/401/114 38/402/38 39/403/39 113/404/113 
f 29/405/29 113/406/113 112/407/112 30/408/30 
f 113/409/113 39/410/39 40/411/40 112/412/112 
f 30/413/30 112/414/112 111/415/111 21/416/21 
f 112/417/112 40/418/40 31/419/31 111/420/111 
f 31/421/31 121/422/121 130/423/130 32/424/32 
f 121/425/121 41/426/41 42/427/42 130/428/130 
f 32/429/32 130/430/130 129/431/129 33/432/33 
f 130/433/130 42/434/42 43/435/43 129/436/129 
f 33/437/33 129/438/129 128/439/128 34/440/34 
f 129/441/129 43/442/43 44/443/44 128/444/128 
f 34/445/34 128/446/128 127/447/127 35/448/35 
f 128/449/128 44/450/44 45/451/45 127/452/127 
f 35/453/35 127/454/127 126/455/126 36/456/36 
f 127/457/127 45/458/45 46/459/46 126/460/126 
f 36/461/36 126/462/126 125/463/125 37/464/37 
f 126/465/126 46/466/46 47/467/47 125/468/125 
f 37/469/37 125/470/125 124/471/124 38/472/38 
f 125/473/125 47/474/47 48/475/48 124/476/124 
f 38/477/38 124/478/124 123/479/123 39/480/39 
f 124/481/124 48/482/48 49/483/49 123/484/123 
f 39/485/39 123/486/123 122/487/122 40/488/40 
f 123/489/123 49/490/49 50/491/50 122/492/122 
f 40/493/40 122/494/122 121/495/121 31/496/31 
f 122/497/122 50/498/50 41/499/41 121/500/121 
# num_faces: 122

