# Wavefront OBJ file
# Creator: Ultimate Unwrap3D Pro v3.22
# Website: http://www.unwrap3d.com
# Time: Fri Jul 09 22:30:43 2010
# num_vertices: 130
# num_vertex_normals: 130
# num_uvs: 500
# num_faces: 122
# num_groups: 1

mtllib stalag1.mtl

v 28.406300 -7.221630 6.834220
v 28.043800 -7.221630 7.097560
v 27.595800 -7.221630 7.097560
v 27.233299 -7.221630 6.834220
v 27.094900 -7.221630 6.408120
v 27.233299 -7.221630 5.982030
v 27.595800 -7.221630 5.718690
v 28.043800 -7.221630 5.718690
v 28.406300 -7.221630 5.982030
v 28.544701 -7.221630 6.408120
v 26.559900 9.615200 4.324410
v 25.135000 9.615200 5.359630
v 23.373800 9.615200 5.359630
v 21.948900 9.615200 4.324410
v 21.404699 9.615200 2.649380
v 21.948900 9.615200 0.974346
v 23.373800 9.615200 -0.060881
v 25.135000 9.615200 -0.060881
v 26.559900 9.615200 0.974345
v 27.104200 9.615200 2.649380
v 28.448999 24.045900 3.047550
v 25.856600 24.045900 4.931040
v 22.652201 24.045900 4.931040
v 20.059799 24.045900 3.047550
v 19.069599 24.045900 0.000000
v 20.059799 24.045900 -3.047550
v 22.652201 24.045900 -4.931040
v 25.856600 24.045900 -4.931040
v 28.448999 24.045900 -3.047550
v 29.439199 24.045900 -0.000000
v 29.429800 38.476601 3.760120
v 26.231199 38.476601 6.084010
v 22.277599 38.476601 6.084010
v 19.079100 38.476601 3.760130
v 17.857300 38.476601 0.000000
v 19.079100 38.476601 -3.760130
v 22.277599 38.476601 -6.084010
v 26.231199 38.476601 -6.084010
v 29.429800 38.476601 -3.760130
v 30.651501 38.476601 -0.000000
v 28.071199 56.176399 2.130810
v 24.913200 56.176399 4.425290
v 21.009600 56.176399 4.425290
v 17.851500 56.176399 2.130810
v 16.645201 56.176399 -1.581740
v 17.851500 56.176399 -5.294290
v 21.009600 56.176399 -7.588770
v 24.913200 56.176399 -7.588770
v 28.071199 56.176399 -5.294290
v 29.277500 56.176399 -1.581740
v 29.770000 69.116402 4.007320
v 26.361200 69.116402 6.483980
v 22.147699 69.116402 6.483980
v 18.738800 69.116402 4.007320
v 17.436800 69.116402 0.000000
v 18.738800 69.116402 -4.007320
v 22.147699 69.116402 -6.483980
v 26.361200 69.116402 -6.483980
v 29.770000 69.116402 -4.007320
v 31.072100 69.116402 -0.000000
v 30.015499 89.851601 2.921080
v 27.199400 89.851601 4.967100
v 23.718500 89.851601 4.967100
v 20.902300 89.851601 2.921080
v 19.826700 89.851601 -0.389459
v 20.902300 89.851601 -3.700000
v 23.718500 89.851601 -5.746020
v 27.199400 89.851601 -5.746020
v 30.015499 89.851601 -3.700000
v 31.091101 89.851601 -0.389460
v 30.763000 110.586998 4.728780
v 26.740499 110.586998 7.651330
v 21.768400 110.586998 7.651330
v 17.745800 110.586998 4.728780
v 16.209299 110.586998 0.000001
v 17.745800 110.586998 -4.728780
v 21.768400 110.586998 -7.651330
v 26.740499 110.586998 -7.651330
v 30.763000 110.586998 -4.728780
v 32.299500 110.586998 -0.000000
v 30.446301 100.995003 4.318720
v 31.910999 101.014999 -0.179602
v 30.451099 101.033997 -4.681360
v 26.621901 101.045998 -7.465340
v 21.886999 101.045998 -7.465340
v 18.057800 101.033997 -4.681360
v 16.597900 101.014999 -0.179601
v 18.062500 100.995003 4.318730
v 21.889900 100.984001 7.097140
v 26.618999 100.984001 7.097140
v 28.203199 60.385700 2.741220
v 29.439699 60.361801 -1.070130
v 28.201700 60.337700 -4.880420
v 24.962799 60.322701 -7.234770
v 20.959900 60.322701 -7.234770
v 17.721001 60.337700 -4.880420
v 16.483000 60.361801 -1.070130
v 17.719500 60.385700 2.741220
v 20.959000 60.400299 5.097300
v 24.963800 60.400299 5.097300
v 29.622999 78.681297 2.959920
v 30.638201 78.685898 -0.165403
v 29.622601 78.690598 -3.290420
v 26.964300 78.693497 -5.221620
v 23.678699 78.693497 -5.221620
v 21.020399 78.690598 -3.290420
v 20.004801 78.685898 -0.165403
v 21.020000 78.681297 2.959920
v 23.678400 78.678398 4.891640
v 26.964600 78.678398 4.891640
v 28.925200 31.051800 3.393490
v 30.027800 31.051800 -0.000000
v 28.925200 31.051800 -3.393500
v 26.038500 31.051800 -5.490790
v 22.470400 31.051800 -5.490790
v 19.583700 31.051800 -3.393500
v 18.481100 31.051800 0.000000
v 19.583700 31.051800 3.393500
v 22.470400 31.051800 5.490790
v 26.038500 31.051800 5.490790
v 27.565599 46.897099 1.533670
v 28.691500 46.898701 -1.931530
v 27.565599 46.900398 -5.396730
v 24.618000 46.901402 -7.538330
v 20.974701 46.901402 -7.538330
v 18.027100 46.900398 -5.396730
v 16.901300 46.898701 -1.931530
v 18.027100 46.897099 1.533670
v 20.974701 46.896099 3.675290
v 24.618000 46.896099 3.675290
# num_vertices: 130

vn 0.762470 -0.336115 0.552871
vn 0.287148 -0.355430 0.889503
vn -0.276030 -0.452280 0.848086
vn -0.660740 -0.573070 0.484782
vn -0.747149 -0.664639 0.004855
vn -0.573908 -0.705845 -0.415226
vn -0.219104 -0.695070 -0.684742
vn 0.244244 -0.632181 -0.735318
vn 0.690330 -0.523937 -0.498933
vn 0.914126 -0.405426 -0.001651
vn 0.807581 0.060468 0.586649
vn 0.307124 0.081404 0.948181
vn -0.309241 0.016659 0.950838
vn -0.802680 -0.108302 0.586495
vn -0.970755 -0.240031 0.004461
vn -0.765832 -0.327947 -0.553130
vn -0.288629 -0.346597 -0.892504
vn 0.299426 -0.290505 -0.908818
vn 0.798499 -0.173452 -0.576467
vn 0.999294 -0.037577 0.000470
vn 0.806875 -0.068727 0.586710
vn 0.308852 -0.035515 0.950447
vn -0.308852 -0.035514 0.950447
vn -0.806883 -0.068726 0.586699
vn -0.992584 -0.121552 0.001364
vn -0.797898 -0.172603 -0.577552
vn -0.303334 -0.202972 -0.931016
vn 0.303334 -0.202974 -0.931016
vn 0.797890 -0.172610 -0.577562
vn 0.992583 -0.121558 0.001365
vn 0.803909 0.119548 0.582614
vn 0.305608 0.118069 0.944809
vn -0.310560 0.067773 0.948135
vn -0.809356 -0.015110 0.587123
vn -0.995188 -0.097977 0.001214
vn -0.800660 -0.147353 -0.580716
vn -0.304866 -0.145787 -0.941171
vn 0.308750 -0.093794 -0.946507
vn 0.808461 -0.009932 -0.588466
vn 0.997415 0.071813 -0.002384
vn 0.805659 -0.095744 0.584591
vn 0.307038 -0.119846 0.944121
vn -0.307349 -0.114423 0.944692
vn -0.806700 -0.081474 0.585318
vn -0.999451 -0.033124 -0.000281
vn -0.809048 0.012106 -0.587618
vn -0.308944 0.036656 -0.950374
vn 0.308983 0.031166 -0.950557
vn 0.809062 -0.002273 -0.587719
vn 0.998706 -0.050861 -0.000352
vn 0.806822 -0.074955 0.586021
vn 0.308598 -0.030140 0.950715
vn -0.308701 0.048361 0.949929
vn -0.801878 0.130499 0.583062
vn -0.982830 0.184514 0.000000
vn -0.793554 0.190724 -0.577838
vn -0.304174 0.147027 -0.941202
vn 0.309100 0.068639 -0.948549
vn 0.808740 -0.014558 -0.587987
vn 0.997594 -0.069330 -0.000668
vn 0.807525 -0.065468 0.586188
vn 0.308604 -0.088483 0.947066
vn -0.305960 -0.116741 0.944860
vn -0.800791 -0.139453 0.582484
vn -0.988913 -0.148493 -0.000271
vn -0.800443 -0.140675 -0.582668
vn -0.305933 -0.118539 -0.944644
vn 0.308284 -0.090108 -0.947017
vn 0.807326 -0.066417 -0.586357
vn 0.998378 -0.056941 -0.000089
vn 0.730726 0.428786 0.531209
vn 0.279819 0.423733 0.861482
vn -0.279820 0.423679 0.861509
vn -0.730779 0.428651 0.531244
vn -0.899613 0.436687 0.000315
vn -0.724781 0.444699 -0.526246
vn -0.276117 0.449654 -0.849453
vn 0.276109 0.449707 -0.849427
vn 0.724725 0.444841 -0.526204
vn 0.899529 0.436861 0.000325
vn 0.806698 -0.078074 0.585785
vn 0.998381 -0.056885 0.000116
vn 0.807949 -0.056056 -0.586580
vn 0.308744 -0.075771 -0.948122
vn -0.306341 -0.108066 -0.945768
vn -0.800574 -0.140356 -0.582564
vn -0.987004 -0.160695 -0.000063
vn -0.797928 -0.161848 0.580617
vn -0.304822 -0.143184 0.941585
vn 0.307842 -0.111216 0.944915
vn 0.797809 -0.167441 0.579193
vn 0.993802 -0.111160 -0.000854
vn 0.808559 -0.026247 -0.587829
vn 0.309025 0.054622 -0.949484
vn -0.306975 0.099635 -0.946488
vn -0.805547 0.092097 -0.585330
vn -0.999387 0.035010 -0.000022
vn -0.808412 -0.050378 0.586457
vn -0.307566 -0.130722 0.942505
vn 0.303553 -0.174950 0.936615
vn 0.808945 0.025102 0.587348
vn 0.999997 0.002373 -0.000062
vn 0.809075 0.003181 -0.587697
vn 0.309348 0.027115 -0.950562
vn -0.307535 0.064639 -0.949339
vn -0.804369 0.101144 -0.585458
vn -0.992400 0.123053 -0.000237
vn -0.802599 0.122550 0.583795
vn -0.306594 0.099630 0.946612
vn 0.309111 0.062423 0.948975
vn 0.806178 -0.083714 0.585721
vn 0.996490 -0.083715 0.000000
vn 0.806177 -0.083714 -0.585722
vn 0.307931 -0.083713 -0.947719
vn -0.307931 -0.083712 -0.947719
vn -0.806178 -0.083712 -0.585722
vn -0.996490 -0.083711 0.000000
vn -0.806178 -0.083711 0.585722
vn -0.307931 -0.083713 0.947719
vn 0.307932 -0.083714 0.947718
vn 0.803864 0.120581 0.582463
vn 0.996616 0.082166 -0.002509
vn 0.808385 0.013236 -0.588505
vn 0.309549 -0.059462 -0.949022
vn -0.306419 -0.106252 -0.945948
vn -0.804563 -0.110220 -0.583549
vn -0.997551 -0.069938 0.001159
vn -0.809521 0.000302 0.587091
vn -0.310577 0.071904 0.947825
vn 0.305645 0.116745 0.944961
# num_vertex_normals: 130

vt 0.858139 0.076329
vt 0.858139 0.130203
vt 0.805445 0.130203
vt 0.805445 0.076329
vt 0.805445 0.076329
vt 0.805445 0.130203
vt 0.754399 0.130203
vt 0.754399 0.076329
vt 0.754399 0.076329
vt 0.754399 0.130203
vt 0.701706 0.130203
vt 0.701706 0.076329
vt 0.701706 0.076329
vt 0.701706 0.130203
vt 0.646149 0.130203
vt 0.646149 0.076329
vt 0.646149 0.076329
vt 0.646149 0.130203
vt 0.590592 0.130203
vt 0.590592 0.076329
vt 0.590592 0.076329
vt 0.590592 0.130203
vt 0.537900 0.130203
vt 0.537900 0.076329
vt 0.537900 0.076329
vt 0.537900 0.130203
vt 0.486852 0.130203
vt 0.486852 0.076329
vt 0.486852 0.076329
vt 0.486852 0.130203
vt 0.434159 0.130203
vt 0.434159 0.076329
vt 0.969252 0.076329
vt 0.969252 0.130203
vt 0.913696 0.130203
vt 0.913696 0.076329
vt 0.913696 0.076329
vt 0.913696 0.130203
vt 0.858139 0.130203
vt 0.858139 0.076329
vt 0.858139 0.130203
vt 0.858139 0.184076
vt 0.805445 0.184076
vt 0.805445 0.130203
vt 0.805445 0.130203
vt 0.805445 0.184076
vt 0.754399 0.184076
vt 0.754399 0.130203
vt 0.754399 0.130203
vt 0.754399 0.184076
vt 0.701706 0.184076
vt 0.701706 0.130203
vt 0.701706 0.130203
vt 0.701706 0.184076
vt 0.646149 0.184076
vt 0.646149 0.130203
vt 0.646149 0.130203
vt 0.646149 0.184076
vt 0.590592 0.184076
vt 0.590592 0.130203
vt 0.590592 0.130203
vt 0.590592 0.184076
vt 0.537900 0.184076
vt 0.537900 0.130203
vt 0.537900 0.130203
vt 0.537900 0.184076
vt 0.486852 0.184076
vt 0.486852 0.130203
vt 0.486852 0.130203
vt 0.486852 0.184076
vt 0.434159 0.184076
vt 0.434159 0.130203
vt 0.969252 0.130203
vt 0.969252 0.184076
vt 0.913696 0.184076
vt 0.913696 0.130203
vt 0.913696 0.130203
vt 0.913696 0.184076
vt 0.858139 0.184076
vt 0.858139 0.130203
vt 0.913696 0.531887
vt 0.969252 0.531887
vt 0.486852 0.531887
vt 0.537900 0.531887
vt 0.590592 0.531887
vt 0.646149 0.531887
vt 0.701706 0.531887
vt 0.754399 0.531887
vt 0.805445 0.531887
vt 0.858139 0.531887
vt 0.858139 0.076329
vt 0.805445 0.076329
vt 0.754399 0.076329
vt 0.701706 0.076329
vt 0.646149 0.076329
vt 0.590592 0.076329
vt 0.537900 0.076329
vt 0.486852 0.076329
vt 0.969252 0.076329
vt 0.913696 0.076329
vt 0.858139 0.464317
vt 0.858139 0.499295
vt 0.805445 0.499260
vt 0.805445 0.464317
vt 0.858139 0.499295
vt 0.858139 0.531887
vt 0.805445 0.531887
vt 0.805445 0.499260
vt 0.805445 0.464317
vt 0.805445 0.499260
vt 0.754399 0.499260
vt 0.754399 0.464317
vt 0.805445 0.499260
vt 0.805445 0.531887
vt 0.754399 0.531887
vt 0.754399 0.499260
vt 0.754399 0.464317
vt 0.754399 0.499260
vt 0.701706 0.499295
vt 0.701706 0.464317
vt 0.754399 0.499260
vt 0.754399 0.531887
vt 0.701706 0.531887
vt 0.701706 0.499295
vt 0.701706 0.464317
vt 0.701706 0.499295
vt 0.646149 0.499353
vt 0.646149 0.464317
vt 0.701706 0.499295
vt 0.701706 0.531887
vt 0.646149 0.531887
vt 0.646149 0.499353
vt 0.646149 0.464317
vt 0.646149 0.499353
vt 0.590592 0.499411
vt 0.590592 0.464317
vt 0.646149 0.499353
vt 0.646149 0.531887
vt 0.590592 0.531887
vt 0.590592 0.499411
vt 0.590592 0.464317
vt 0.590592 0.499411
vt 0.537900 0.499447
vt 0.537900 0.464317
vt 0.590592 0.499411
vt 0.590592 0.531887
vt 0.537900 0.531887
vt 0.537900 0.499447
vt 0.537900 0.464317
vt 0.537900 0.499447
vt 0.486852 0.499447
vt 0.486852 0.464317
vt 0.537900 0.499447
vt 0.537900 0.531887
vt 0.486852 0.531887
vt 0.486852 0.499447
vt 0.486852 0.464317
vt 0.486852 0.499447
vt 0.434159 0.499411
vt 0.434159 0.464317
vt 0.486852 0.499447
vt 0.486852 0.531887
vt 0.434159 0.531887
vt 0.434159 0.499411
vt 0.969252 0.464317
vt 0.969252 0.499411
vt 0.913696 0.499353
vt 0.913696 0.464317
vt 0.969252 0.499411
vt 0.969252 0.531887
vt 0.913696 0.531887
vt 0.913696 0.499353
vt 0.913696 0.464317
vt 0.913696 0.499353
vt 0.858139 0.499295
vt 0.858139 0.464317
vt 0.913696 0.499353
vt 0.913696 0.531887
vt 0.858139 0.531887
vt 0.858139 0.499295
vt 0.858139 0.326687
vt 0.858139 0.357818
vt 0.805445 0.357891
vt 0.805445 0.326687
vt 0.858139 0.357818
vt 0.858139 0.388031
vt 0.805445 0.388031
vt 0.805445 0.357891
vt 0.805445 0.326687
vt 0.805445 0.357891
vt 0.754399 0.357891
vt 0.754399 0.326687
vt 0.805445 0.357891
vt 0.805445 0.388031
vt 0.754399 0.388031
vt 0.754399 0.357891
vt 0.754399 0.326687
vt 0.754399 0.357891
vt 0.701706 0.357818
vt 0.701706 0.326687
vt 0.754399 0.357891
vt 0.754399 0.388031
vt 0.701706 0.388031
vt 0.701706 0.357818
vt 0.701706 0.326687
vt 0.701706 0.357818
vt 0.646149 0.357698
vt 0.646149 0.326687
vt 0.701706 0.357818
vt 0.701706 0.388031
vt 0.646149 0.388031
vt 0.646149 0.357698
vt 0.646149 0.326687
vt 0.646149 0.357698
vt 0.590592 0.357576
vt 0.590592 0.326687
vt 0.646149 0.357698
vt 0.646149 0.388031
vt 0.590592 0.388031
vt 0.590592 0.357576
vt 0.590592 0.326687
vt 0.590592 0.357576
vt 0.537900 0.357501
vt 0.537900 0.326687
vt 0.590592 0.357576
vt 0.590592 0.388031
vt 0.537900 0.388031
vt 0.537900 0.357501
vt 0.537900 0.326687
vt 0.537900 0.357501
vt 0.486852 0.357501
vt 0.486852 0.326687
vt 0.537900 0.357501
vt 0.537900 0.388031
vt 0.486852 0.388031
vt 0.486852 0.357501
vt 0.486852 0.326687
vt 0.486852 0.357501
vt 0.434159 0.357576
vt 0.434159 0.326687
vt 0.486852 0.357501
vt 0.486852 0.388031
vt 0.434159 0.388031
vt 0.434159 0.357576
vt 0.969252 0.326687
vt 0.969252 0.357576
vt 0.913696 0.357698
vt 0.913696 0.326687
vt 0.969252 0.357576
vt 0.969252 0.388031
vt 0.913696 0.388031
vt 0.913696 0.357698
vt 0.913696 0.326687
vt 0.913696 0.357698
vt 0.858139 0.357818
vt 0.858139 0.326687
vt 0.913696 0.357698
vt 0.913696 0.388031
vt 0.858139 0.388031
vt 0.858139 0.357818
vt 0.858139 0.388031
vt 0.858139 0.421891
vt 0.805445 0.421880
vt 0.805445 0.388031
vt 0.858139 0.421891
vt 0.858139 0.464317
vt 0.805445 0.464317
vt 0.805445 0.421880
vt 0.805445 0.388031
vt 0.805445 0.421880
vt 0.754399 0.421880
vt 0.754399 0.388031
vt 0.805445 0.421880
vt 0.805445 0.464317
vt 0.754399 0.464317
vt 0.754399 0.421880
vt 0.754399 0.388031
vt 0.754399 0.421880
vt 0.701706 0.421891
vt 0.701706 0.388031
vt 0.754399 0.421880
vt 0.754399 0.464317
vt 0.701706 0.464317
vt 0.701706 0.421891
vt 0.701706 0.388031
vt 0.701706 0.421891
vt 0.646149 0.421909
vt 0.646149 0.388031
vt 0.701706 0.421891
vt 0.701706 0.464317
vt 0.646149 0.464317
vt 0.646149 0.421909
vt 0.646149 0.388031
vt 0.646149 0.421909
vt 0.590592 0.421926
vt 0.590592 0.388031
vt 0.646149 0.421909
vt 0.646149 0.464317
vt 0.590592 0.464317
vt 0.590592 0.421926
vt 0.590592 0.388031
vt 0.590592 0.421926
vt 0.537900 0.421937
vt 0.537900 0.388031
vt 0.590592 0.421926
vt 0.590592 0.464317
vt 0.537900 0.464317
vt 0.537900 0.421937
vt 0.537900 0.388031
vt 0.537900 0.421937
vt 0.486852 0.421937
vt 0.486852 0.388031
vt 0.537900 0.421937
vt 0.537900 0.464317
vt 0.486852 0.464317
vt 0.486852 0.421937
vt 0.486852 0.388031
vt 0.486852 0.421937
vt 0.434159 0.421926
vt 0.434159 0.388031
vt 0.486852 0.421937
vt 0.486852 0.464317
vt 0.434159 0.464317
vt 0.434159 0.421926
vt 0.969252 0.388031
vt 0.969252 0.421926
vt 0.913696 0.421909
vt 0.913696 0.388031
vt 0.969252 0.421926
vt 0.969252 0.464317
vt 0.913696 0.464317
vt 0.913696 0.421909
vt 0.913696 0.388031
vt 0.913696 0.421909
vt 0.858139 0.421891
vt 0.858139 0.388031
vt 0.913696 0.421909
vt 0.913696 0.464317
vt 0.858139 0.464317
vt 0.858139 0.421891
vt 0.858139 0.184076
vt 0.858139 0.220652
vt 0.805445 0.220652
vt 0.805445 0.184076
vt 0.858139 0.220652
vt 0.858139 0.246666
vt 0.805445 0.246666
vt 0.805445 0.220652
vt 0.805445 0.184076
vt 0.805445 0.220652
vt 0.754399 0.220652
vt 0.754399 0.184076
vt 0.805445 0.220652
vt 0.805445 0.246666
vt 0.754399 0.246666
vt 0.754399 0.220652
vt 0.754399 0.184076
vt 0.754399 0.220652
vt 0.701706 0.220652
vt 0.701706 0.184076
vt 0.754399 0.220652
vt 0.754399 0.246666
vt 0.701706 0.246666
vt 0.701706 0.220652
vt 0.701706 0.184076
vt 0.701706 0.220652
vt 0.646149 0.220652
vt 0.646149 0.184076
vt 0.701706 0.220652
vt 0.701706 0.246666
vt 0.646149 0.246666
vt 0.646149 0.220652
vt 0.646149 0.184076
vt 0.646149 0.220652
vt 0.590592 0.220652
vt 0.590592 0.184076
vt 0.646149 0.220652
vt 0.646149 0.246666
vt 0.590592 0.246666
vt 0.590592 0.220652
vt 0.590592 0.184076
vt 0.590592 0.220652
vt 0.537900 0.220652
vt 0.537900 0.184076
vt 0.590592 0.220652
vt 0.590592 0.246666
vt 0.537900 0.246666
vt 0.537900 0.220652
vt 0.537900 0.184076
vt 0.537900 0.220652
vt 0.486852 0.220652
vt 0.486852 0.184076
vt 0.537900 0.220652
vt 0.537900 0.246666
vt 0.486852 0.246666
vt 0.486852 0.220652
vt 0.486852 0.184076
vt 0.486852 0.220652
vt 0.434159 0.220652
vt 0.434159 0.184076
vt 0.486852 0.220652
vt 0.486852 0.246666
vt 0.434159 0.246666
vt 0.434159 0.220652
vt 0.969252 0.184076
vt 0.969252 0.220652
vt 0.913696 0.220652
vt 0.913696 0.184076
vt 0.969252 0.220652
vt 0.969252 0.246666
vt 0.913696 0.246666
vt 0.913696 0.220652
vt 0.913696 0.184076
vt 0.913696 0.220652
vt 0.858139 0.220652
vt 0.858139 0.184076
vt 0.913696 0.220652
vt 0.913696 0.246666
vt 0.858139 0.246666
vt 0.858139 0.220652
vt 0.858139 0.246666
vt 0.858139 0.287642
vt 0.805445 0.287638
vt 0.805445 0.246666
vt 0.858139 0.287642
vt 0.858139 0.326687
vt 0.805445 0.326687
vt 0.805445 0.287638
vt 0.805445 0.246666
vt 0.805445 0.287638
vt 0.754399 0.287638
vt 0.754399 0.246666
vt 0.805445 0.287638
vt 0.805445 0.326687
vt 0.754399 0.326687
vt 0.754399 0.287638
vt 0.754399 0.246666
vt 0.754399 0.287638
vt 0.701706 0.287642
vt 0.701706 0.246666
vt 0.754399 0.287638
vt 0.754399 0.326687
vt 0.701706 0.326687
vt 0.701706 0.287642
vt 0.701706 0.246666
vt 0.701706 0.287642
vt 0.646149 0.287648
vt 0.646149 0.246666
vt 0.701706 0.287642
vt 0.701706 0.326687
vt 0.646149 0.326687
vt 0.646149 0.287648
vt 0.646149 0.246666
vt 0.646149 0.287648
vt 0.590592 0.287655
vt 0.590592 0.246666
vt 0.646149 0.287648
vt 0.646149 0.326687
vt 0.590592 0.326687
vt 0.590592 0.287655
vt 0.590592 0.246666
vt 0.590592 0.287655
vt 0.537900 0.287659
vt 0.537900 0.246666
vt 0.590592 0.287655
vt 0.590592 0.326687
vt 0.537900 0.326687
vt 0.537900 0.287659
vt 0.537900 0.246666
vt 0.537900 0.287659
vt 0.486852 0.287659
vt 0.486852 0.246666
vt 0.537900 0.287659
vt 0.537900 0.326687
vt 0.486852 0.326687
vt 0.486852 0.287659
vt 0.486852 0.246666
vt 0.486852 0.287659
vt 0.434159 0.287655
vt 0.434159 0.246666
vt 0.486852 0.287659
vt 0.486852 0.326687
vt 0.434159 0.326687
vt 0.434159 0.287655
vt 0.969252 0.246666
vt 0.969252 0.287655
vt 0.913696 0.287648
vt 0.913696 0.246666
vt 0.969252 0.287655
vt 0.969252 0.326687
vt 0.913696 0.326687
vt 0.913696 0.287648
vt 0.913696 0.246666
vt 0.913696 0.287648
vt 0.858139 0.287642
vt 0.858139 0.246666
vt 0.913696 0.287648
vt 0.913696 0.326687
vt 0.858139 0.326687
vt 0.858139 0.287642
# num_uvs: 500

g stalag1
s 1

usemtl cavelarge
f 1/1/1 11/2/11 12/3/12 2/4/2 
f 2/5/2 12/6/12 13/7/13 3/8/3 
f 3/9/3 13/10/13 14/11/14 4/12/4 
f 4/13/4 14/14/14 15/15/15 5/16/5 
f 5/17/5 15/18/15 16/19/16 6/20/6 
f 6/21/6 16/22/16 17/23/17 7/24/7 
f 7/25/7 17/26/17 18/27/18 8/28/8 
f 8/29/8 18/30/18 19/31/19 9/32/9 
f 9/33/9 19/34/19 20/35/20 10/36/10 
f 10/37/10 20/38/20 11/39/11 1/40/1 
f 11/41/11 21/42/21 22/43/22 12/44/12 
f 12/45/12 22/46/22 23/47/23 13/48/13 
f 13/49/13 23/50/23 24/51/24 14/52/14 
f 14/53/14 24/54/24 25/55/25 15/56/15 
f 15/57/15 25/58/25 26/59/26 16/60/16 
f 16/61/16 26/62/26 27/63/27 17/64/17 
f 17/65/17 27/66/27 28/67/28 18/68/18 
f 18/69/18 28/70/28 29/71/29 19/72/19 
f 19/73/19 29/74/29 30/75/30 20/76/20 
f 20/77/20 30/78/30 21/79/21 11/80/11 
f 80/81/80 79/82/79 78/83/78 77/84/77 76/85/76 75/86/75 74/87/74 73/88/73 72/89/72 71/90/71 
f 1/91/1 2/92/2 3/93/3 4/94/4 5/95/5 6/96/6 7/97/7 8/98/8 9/99/9 10/100/10 
f 61/101/61 81/102/81 90/103/90 62/104/62 
f 81/105/81 71/106/71 72/107/72 90/108/90 
f 62/109/62 90/110/90 89/111/89 63/112/63 
f 90/113/90 72/114/72 73/115/73 89/116/89 
f 63/117/63 89/118/89 88/119/88 64/120/64 
f 89/121/89 73/122/73 74/123/74 88/124/88 
f 64/125/64 88/126/88 87/127/87 65/128/65 
f 88/129/88 74/130/74 75/131/75 87/132/87 
f 65/133/65 87/134/87 86/135/86 66/136/66 
f 87/137/87 75/138/75 76/139/76 86/140/86 
f 66/141/66 86/142/86 85/143/85 67/144/67 
f 86/145/86 76/146/76 77/147/77 85/148/85 
f 67/149/67 85/150/85 84/151/84 68/152/68 
f 85/153/85 77/154/77 78/155/78 84/156/84 
f 68/157/68 84/158/84 83/159/83 69/160/69 
f 84/161/84 78/162/78 79/163/79 83/164/83 
f 69/165/69 83/166/83 82/167/82 70/168/70 
f 83/169/83 79/170/79 80/171/80 82/172/82 
f 70/173/70 82/174/82 81/175/81 61/176/61 
f 82/177/82 80/178/80 71/179/71 81/180/81 
f 41/181/41 91/182/91 100/183/100 42/184/42 
f 91/185/91 51/186/51 52/187/52 100/188/100 
f 42/189/42 100/190/100 99/191/99 43/192/43 
f 100/193/100 52/194/52 53/195/53 99/196/99 
f 43/197/43 99/198/99 98/199/98 44/200/44 
f 99/201/99 53/202/53 54/203/54 98/204/98 
f 44/205/44 98/206/98 97/207/97 45/208/45 
f 98/209/98 54/210/54 55/211/55 97/212/97 
f 45/213/45 97/214/97 96/215/96 46/216/46 
f 97/217/97 55/218/55 56/219/56 96/220/96 
f 46/221/46 96/222/96 95/223/95 47/224/47 
f 96/225/96 56/226/56 57/227/57 95/228/95 
f 47/229/47 95/230/95 94/231/94 48/232/48 
f 95/233/95 57/234/57 58/235/58 94/236/94 
f 48/237/48 94/238/94 93/239/93 49/240/49 
f 94/241/94 58/242/58 59/243/59 93/244/93 
f 49/245/49 93/246/93 92/247/92 50/248/50 
f 93/249/93 59/250/59 60/251/60 92/252/92 
f 50/253/50 92/254/92 91/255/91 41/256/41 
f 92/257/92 60/258/60 51/259/51 91/260/91 
f 51/261/51 101/262/101 110/263/110 52/264/52 
f 101/265/101 61/266/61 62/267/62 110/268/110 
f 52/269/52 110/270/110 109/271/109 53/272/53 
f 110/273/110 62/274/62 63/275/63 109/276/109 
f 53/277/53 109/278/109 108/279/108 54/280/54 
f 109/281/109 63/282/63 64/283/64 108/284/108 
f 54/285/54 108/286/108 107/287/107 55/288/55 
f 108/289/108 64/290/64 65/291/65 107/292/107 
f 55/293/55 107/294/107 106/295/106 56/296/56 
f 107/297/107 65/298/65 66/299/66 106/300/106 
f 56/301/56 106/302/106 105/303/105 57/304/57 
f 106/305/106 66/306/66 67/307/67 105/308/105 
f 57/309/57 105/310/105 104/311/104 58/312/58 
f 105/313/105 67/314/67 68/315/68 104/316/104 
f 58/317/58 104/318/104 103/319/103 59/320/59 
f 104/321/104 68/322/68 69/323/69 103/324/103 
f 59/325/59 103/326/103 102/327/102 60/328/60 
f 103/329/103 69/330/69 70/331/70 102/332/102 
f 60/333/60 102/334/102 101/335/101 51/336/51 
f 102/337/102 70/338/70 61/339/61 101/340/101 
f 21/341/21 111/342/111 120/343/120 22/344/22 
f 111/345/111 31/346/31 32/347/32 120/348/120 
f 22/349/22 120/350/120 119/351/119 23/352/23 
f 120/353/120 32/354/32 33/355/33 119/356/119 
f 23/357/23 119/358/119 118/359/118 24/360/24 
f 119/361/119 33/362/33 34/363/34 118/364/118 
f 24/365/24 118/366/118 117/367/117 25/368/25 
f 118/369/118 34/370/34 35/371/35 117/372/117 
f 25/373/25 117/374/117 116/375/116 26/376/26 
f 117/377/117 35/378/35 36/379/36 116/380/116 
f 26/381/26 116/382/116 115/383/115 27/384/27 
f 116/385/116 36/386/36 37/387/37 115/388/115 
f 27/389/27 115/390/115 114/391/114 28/392/28 
f 115/393/115 37/394/37 38/395/38 114/396/114 
f 28/397/28 114/398/114 113/399/113 29/400/29 
f 114/401/114 38/402/38 39/403/39 113/404/113 
f 29/405/29 113/406/113 112/407/112 30/408/30 
f 113/409/113 39/410/39 40/411/40 112/412/112 
f 30/413/30 112/414/112 111/415/111 21/416/21 
f 112/417/112 40/418/40 31/419/31 111/420/111 
f 31/421/31 121/422/121 130/423/130 32/424/32 
f 121/425/121 41/426/41 42/427/42 130/428/130 
f 32/429/32 130/430/130 129/431/129 33/432/33 
f 130/433/130 42/434/42 43/435/43 129/436/129 
f 33/437/33 129/438/129 128/439/128 34/440/34 
f 129/441/129 43/442/43 44/443/44 128/444/128 
f 34/445/34 128/446/128 127/447/127 35/448/35 
f 128/449/128 44/450/44 45/451/45 127/452/127 
f 35/453/35 127/454/127 126/455/126 36/456/36 
f 127/457/127 45/458/45 46/459/46 126/460/126 
f 36/461/36 126/462/126 125/463/125 37/464/37 
f 126/465/126 46/466/46 47/467/47 125/468/125 
f 37/469/37 125/470/125 124/471/124 38/472/38 
f 125/473/125 47/474/47 48/475/48 124/476/124 
f 38/477/38 124/478/124 123/479/123 39/480/39 
f 124/481/124 48/482/48 49/483/49 123/484/123 
f 39/485/39 123/486/123 122/487/122 40/488/40 
f 123/489/123 49/490/49 50/491/50 122/492/122 
f 40/493/40 122/494/122 121/495/121 31/496/31 
f 122/497/122 50/498/50 41/499/41 121/500/121 
# num_faces: 122

