# Wavefront OBJ file
# Creator: Ultimate Unwrap3D Pro v3.22
# Website: http://www.unwrap3d.com
# Time: Fri Jul 09 22:36:16 2010
# num_vertices: 130
# num_vertex_normals: 130
# num_uvs: 500
# num_faces: 122
# num_groups: 1

mtllib stalag5.mtl

v 1.246399 0.000000 6.901510
v 0.826700 0.000000 7.206430
v 0.307899 0.000000 7.206430
v -0.111801 0.000000 6.901510
v -0.272100 0.000000 6.408120
v -0.111801 0.000000 5.914740
v 0.307899 0.000000 5.609820
v 0.826700 0.000000 5.609820
v 1.246399 0.000000 5.914740
v 1.406700 0.000000 6.408120
v 2.305500 19.855801 4.324410
v 0.880600 19.855801 5.359630
v -0.880600 19.855801 5.359630
v -2.305500 19.855801 4.324410
v -2.849701 19.855801 2.649380
v -2.305500 19.855801 0.974346
v -0.880600 19.855801 -0.060881
v 0.880600 19.855801 -0.060881
v 2.305500 19.855801 0.974345
v 2.849800 19.855801 2.649380
v 6.072899 32.717903 4.412200
v 2.319599 32.717903 7.139090
v -2.319700 32.717903 7.139090
v -6.072901 32.717903 4.412200
v -7.506500 32.717903 0.000000
v -6.072901 32.717903 -4.412200
v -2.319700 32.717903 -7.139090
v 2.319599 32.717903 -7.139090
v 6.072899 32.717903 -4.412200
v 7.506500 32.717903 0.000000
v 5.175400 48.717201 3.760120
v 1.976799 48.717201 6.084010
v -1.976801 48.717201 6.084010
v -5.175301 48.717201 3.760130
v -6.397100 48.717201 0.000000
v -5.175301 48.717201 -3.760130
v -1.976801 48.717201 -6.084010
v 1.976799 48.717201 -6.084010
v 5.175400 48.717201 -3.760130
v 6.397100 48.717201 0.000000
v 7.568800 65.596695 3.442230
v 3.184299 65.596695 6.627860
v -2.235500 65.596695 6.627860
v -6.620100 65.596695 3.442230
v -8.294900 65.596695 -1.712240
v -6.620100 65.596695 -6.866710
v -2.235500 65.596695 -10.052300
v 3.184299 65.596695 -10.052300
v 7.568800 65.596695 -6.866710
v 9.243601 65.596695 -1.712240
v 5.515600 79.357002 4.007320
v 2.106800 79.357002 6.483980
v -2.106701 79.357002 6.483980
v -5.515600 79.357002 4.007320
v -6.817600 79.357002 0.000000
v -5.515600 79.357002 -4.007320
v -2.106701 79.357002 -6.483980
v 2.106800 79.357002 -6.483980
v 5.515600 79.357002 -4.007320
v 6.817699 79.357002 0.000000
v 5.761099 100.092201 2.921080
v 2.945000 100.092201 4.967100
v -0.535900 100.092201 4.967100
v -3.352100 100.092201 2.921080
v -4.427700 100.092201 -0.389459
v -3.352100 100.092201 -3.700000
v -0.535900 100.092201 -5.746020
v 2.945000 100.092201 -5.746020
v 5.761099 100.092201 -3.700000
v 6.836700 100.092201 -0.389460
v 9.689901 120.827599 7.040160
v 3.701300 120.827599 11.391200
v -3.701099 120.827599 11.391200
v -9.689900 120.827599 7.040160
v -11.977500 120.827599 0.000001
v -9.689900 120.827599 -7.040160
v -3.701099 120.827599 -11.391200
v 3.701300 120.827599 -11.391200
v 9.689901 120.827599 -7.040160
v 11.977499 120.827599 0.000000
v 6.191900 111.235603 4.318720
v 7.656599 111.255600 -0.179602
v 6.196699 111.274597 -4.681360
v 2.367500 111.286598 -7.465340
v -2.367401 111.286598 -7.465340
v -6.196600 111.274597 -4.681360
v -7.656500 111.255600 -0.179601
v -6.191900 111.235603 4.318730
v -2.364500 111.224602 7.097140
v 2.364599 111.224602 7.097140
v 7.752100 71.440903 4.289720
v 9.468801 71.407700 -1.001930
v 7.749998 71.374199 -6.292100
v 3.253099 71.353401 -9.560850
v -2.304501 71.353401 -9.560850
v -6.801300 71.374199 -6.292100
v -8.520101 71.407700 -1.001930
v -6.803400 71.440903 4.289720
v -2.305700 71.461197 7.560870
v 3.254499 71.461197 7.560870
v 5.368599 88.921898 2.959920
v 6.383801 88.926498 -0.165403
v 5.368200 88.931198 -3.290420
v 2.709900 88.934097 -5.221620
v -0.575701 88.934097 -5.221620
v -3.234001 88.931198 -3.290420
v -4.249599 88.926498 -0.165403
v -3.234400 88.921898 2.959920
v -0.576000 88.918999 4.891640
v 2.710199 88.918999 4.891640
v 6.762300 42.861000 4.913050
v 8.358599 42.861000 0.000000
v 6.762300 42.861000 -4.913060
v 2.583000 42.861000 -7.949490
v -2.582901 42.861000 -7.949490
v -6.762199 42.861000 -4.913060
v -8.358500 42.861000 0.000000
v -6.762199 42.861000 4.913060
v -2.582901 42.861000 7.949490
v 2.583000 42.861000 7.949490
v 5.472200 57.137699 1.533670
v 6.598101 57.139301 -1.931530
v 5.472200 57.140999 -5.396730
v 2.524599 57.142002 -7.538330
v -1.118700 57.142002 -7.538330
v -4.066299 57.140999 -5.396730
v -5.192101 57.139301 -1.931530
v -4.066299 57.137699 1.533670
v -1.118700 57.136700 3.675290
v 2.524599 57.136700 3.675290
# num_vertices: 130

vn 0.725745 -0.442461 0.526804
vn 0.283072 -0.402711 0.870456
vn -0.281527 -0.415773 0.864798
vn -0.711883 -0.474847 0.517440
vn -0.834626 -0.550813 0.001920
vn -0.641001 -0.612271 -0.462863
vn -0.237725 -0.641156 -0.729661
vn 0.241012 -0.631998 -0.736541
vn 0.656794 -0.586295 -0.474215
vn 0.857380 -0.514683 0.001115
vn 0.803920 -0.101391 0.586031
vn 0.308438 -0.038637 0.950459
vn -0.308468 -0.047447 0.950051
vn -0.801634 -0.124313 0.584747
vn -0.971873 -0.235467 0.004154
vn -0.765102 -0.333930 -0.550554
vn -0.286575 -0.385735 -0.876974
vn 0.288133 -0.378176 -0.879751
vn 0.770885 -0.313109 -0.554707
vn 0.978102 -0.208095 0.003675
vn 0.797648 -0.159211 0.581730
vn 0.306169 -0.123894 0.943881
vn -0.306172 -0.123894 0.943880
vn -0.797657 -0.159214 0.581717
vn -0.976920 -0.213586 0.003016
vn -0.782015 -0.264059 -0.564558
vn -0.296572 -0.293124 -0.908913
vn 0.296569 -0.293126 -0.908914
vn 0.782004 -0.264065 -0.564570
vn 0.976919 -0.213590 0.003017
vn 0.789491 0.222830 0.571883
vn 0.298138 0.280996 0.912225
vn -0.294282 0.304079 0.906054
vn -0.776251 0.285519 0.562061
vn -0.973069 0.230508 -0.001518
vn -0.798940 0.157740 -0.580356
vn -0.308487 0.096207 -0.946351
vn 0.308168 0.070852 -0.948690
vn 0.806184 0.091289 -0.584580
vn 0.988715 0.149809 0.000263
vn 0.790843 -0.214384 0.573242
vn 0.300303 -0.245559 0.921694
vn -0.299018 -0.252733 0.920171
vn -0.787060 -0.233409 0.571014
vn -0.980928 -0.194371 -0.000687
vn -0.799596 -0.150165 -0.581461
vn -0.306537 -0.117947 -0.944523
vn 0.307470 -0.110365 -0.945136
vn 0.802127 -0.130483 -0.582723
vn 0.985371 -0.170422 -0.000634
vn 0.798421 0.159602 0.580561
vn 0.305551 0.154534 0.939552
vn -0.303962 0.169872 0.937417
vn -0.792333 0.200437 0.576223
vn -0.972104 0.234550 0.000286
vn -0.781721 0.258366 -0.567591
vn -0.298471 0.262180 -0.917702
vn 0.299520 0.245167 -0.922053
vn 0.790340 0.214815 -0.573775
vn 0.983202 0.182517 0.000656
vn 0.807525 -0.065468 0.586188
vn 0.308604 -0.088483 0.947066
vn -0.305960 -0.116741 0.944860
vn -0.800791 -0.139453 0.582484
vn -0.988913 -0.148493 -0.000271
vn -0.800443 -0.140675 -0.582668
vn -0.305933 -0.118539 -0.944644
vn 0.308284 -0.090108 -0.947017
vn 0.807326 -0.066417 -0.586357
vn 0.998378 -0.056941 -0.000089
vn 0.804831 0.111374 0.582961
vn 0.307747 0.106466 0.945493
vn -0.307761 0.106670 0.945465
vn -0.804792 0.111971 0.582900
vn -0.992740 0.120267 -0.001815
vn -0.801481 0.128407 -0.584072
vn -0.305749 0.133308 -0.942734
vn 0.305727 0.133075 -0.942773
vn 0.801531 0.127820 -0.584132
vn 0.992830 0.119520 -0.001815
vn 0.780442 -0.266246 0.565707
vn 0.969016 -0.246996 -0.000915
vn 0.783608 -0.247279 -0.569922
vn 0.298118 -0.266850 -0.916470
vn -0.293855 -0.297602 -0.908340
vn -0.763501 -0.327459 -0.556629
vn -0.938416 -0.345507 -0.001074
vn -0.759233 -0.345567 0.551497
vn -0.291261 -0.327403 0.898874
vn 0.296073 -0.297170 0.907761
vn 0.807109 0.066983 0.586591
vn 0.989977 0.141229 0.000470
vn 0.792314 0.203478 -0.575183
vn 0.300205 0.231572 -0.925338
vn -0.302977 0.215969 -0.928204
vn -0.799202 0.161150 -0.579057
vn -0.996269 0.086302 0.000267
vn -0.809220 0.020861 0.587135
vn -0.309605 -0.008590 0.950827
vn 0.308824 0.009332 0.951074
vn 0.808945 0.025102 0.587348
vn 0.999997 0.002373 -0.000062
vn 0.809075 0.003181 -0.587697
vn 0.309348 0.027115 -0.950562
vn -0.307535 0.064639 -0.949339
vn -0.804369 0.101144 -0.585458
vn -0.992400 0.123053 -0.000237
vn -0.802599 0.122550 0.583795
vn -0.306594 0.099630 0.946612
vn 0.309111 0.062423 0.948975
vn 0.803184 0.119870 0.583546
vn 0.992790 0.119869 0.000000
vn 0.803184 0.119869 -0.583547
vn 0.306787 0.119869 -0.944200
vn -0.306790 0.119870 -0.944199
vn -0.803186 0.119870 -0.583544
vn -0.992790 0.119870 -0.000000
vn -0.803186 0.119872 0.583544
vn -0.306790 0.119870 0.944199
vn 0.306787 0.119869 0.944200
vn 0.806245 -0.098584 0.583309
vn 0.986594 -0.163195 -0.000146
vn 0.790349 -0.216191 -0.573245
vn 0.300287 -0.237772 -0.923738
vn -0.301833 -0.220673 -0.927470
vn -0.796900 -0.170364 -0.579591
vn -0.994390 -0.105759 -0.002025
vn -0.808930 -0.052839 0.585525
vn -0.308521 -0.031308 0.950702
vn 0.310801 -0.048339 0.949245
# num_vertex_normals: 130

vt 0.858139 0.076329
vt 0.858139 0.130203
vt 0.805445 0.130203
vt 0.805445 0.076329
vt 0.805445 0.076329
vt 0.805445 0.130203
vt 0.754399 0.130203
vt 0.754399 0.076329
vt 0.754399 0.076329
vt 0.754399 0.130203
vt 0.701706 0.130203
vt 0.701706 0.076329
vt 0.701706 0.076329
vt 0.701706 0.130203
vt 0.646149 0.130203
vt 0.646149 0.076329
vt 0.646149 0.076329
vt 0.646149 0.130203
vt 0.590592 0.130203
vt 0.590592 0.076329
vt 0.590592 0.076329
vt 0.590592 0.130203
vt 0.537900 0.130203
vt 0.537900 0.076329
vt 0.537900 0.076329
vt 0.537900 0.130203
vt 0.486852 0.130203
vt 0.486852 0.076329
vt 0.486852 0.076329
vt 0.486852 0.130203
vt 0.434159 0.130203
vt 0.434159 0.076329
vt 0.969252 0.076329
vt 0.969252 0.130203
vt 0.913696 0.130203
vt 0.913696 0.076329
vt 0.913696 0.076329
vt 0.913696 0.130203
vt 0.858139 0.130203
vt 0.858139 0.076329
vt 0.858139 0.130203
vt 0.858139 0.184076
vt 0.805445 0.184076
vt 0.805445 0.130203
vt 0.805445 0.130203
vt 0.805445 0.184076
vt 0.754399 0.184076
vt 0.754399 0.130203
vt 0.754399 0.130203
vt 0.754399 0.184076
vt 0.701706 0.184076
vt 0.701706 0.130203
vt 0.701706 0.130203
vt 0.701706 0.184076
vt 0.646149 0.184076
vt 0.646149 0.130203
vt 0.646149 0.130203
vt 0.646149 0.184076
vt 0.590592 0.184076
vt 0.590592 0.130203
vt 0.590592 0.130203
vt 0.590592 0.184076
vt 0.537900 0.184076
vt 0.537900 0.130203
vt 0.537900 0.130203
vt 0.537900 0.184076
vt 0.486852 0.184076
vt 0.486852 0.130203
vt 0.486852 0.130203
vt 0.486852 0.184076
vt 0.434159 0.184076
vt 0.434159 0.130203
vt 0.969252 0.130203
vt 0.969252 0.184076
vt 0.913696 0.184076
vt 0.913696 0.130203
vt 0.913696 0.130203
vt 0.913696 0.184076
vt 0.858139 0.184076
vt 0.858139 0.130203
vt 0.913696 0.531887
vt 0.969252 0.531887
vt 0.486852 0.531887
vt 0.537900 0.531887
vt 0.590592 0.531887
vt 0.646149 0.531887
vt 0.701706 0.531887
vt 0.754399 0.531887
vt 0.805445 0.531887
vt 0.858139 0.531887
vt 0.858139 0.076329
vt 0.805445 0.076329
vt 0.754399 0.076329
vt 0.701706 0.076329
vt 0.646149 0.076329
vt 0.590592 0.076329
vt 0.537900 0.076329
vt 0.486852 0.076329
vt 0.969252 0.076329
vt 0.913696 0.076329
vt 0.858139 0.464317
vt 0.858139 0.499295
vt 0.805445 0.499260
vt 0.805445 0.464317
vt 0.858139 0.499295
vt 0.858139 0.531887
vt 0.805445 0.531887
vt 0.805445 0.499260
vt 0.805445 0.464317
vt 0.805445 0.499260
vt 0.754399 0.499260
vt 0.754399 0.464317
vt 0.805445 0.499260
vt 0.805445 0.531887
vt 0.754399 0.531887
vt 0.754399 0.499260
vt 0.754399 0.464317
vt 0.754399 0.499260
vt 0.701706 0.499295
vt 0.701706 0.464317
vt 0.754399 0.499260
vt 0.754399 0.531887
vt 0.701706 0.531887
vt 0.701706 0.499295
vt 0.701706 0.464317
vt 0.701706 0.499295
vt 0.646149 0.499353
vt 0.646149 0.464317
vt 0.701706 0.499295
vt 0.701706 0.531887
vt 0.646149 0.531887
vt 0.646149 0.499353
vt 0.646149 0.464317
vt 0.646149 0.499353
vt 0.590592 0.499411
vt 0.590592 0.464317
vt 0.646149 0.499353
vt 0.646149 0.531887
vt 0.590592 0.531887
vt 0.590592 0.499411
vt 0.590592 0.464317
vt 0.590592 0.499411
vt 0.537900 0.499447
vt 0.537900 0.464317
vt 0.590592 0.499411
vt 0.590592 0.531887
vt 0.537900 0.531887
vt 0.537900 0.499447
vt 0.537900 0.464317
vt 0.537900 0.499447
vt 0.486852 0.499447
vt 0.486852 0.464317
vt 0.537900 0.499447
vt 0.537900 0.531887
vt 0.486852 0.531887
vt 0.486852 0.499447
vt 0.486852 0.464317
vt 0.486852 0.499447
vt 0.434159 0.499411
vt 0.434159 0.464317
vt 0.486852 0.499447
vt 0.486852 0.531887
vt 0.434159 0.531887
vt 0.434159 0.499411
vt 0.969252 0.464317
vt 0.969252 0.499411
vt 0.913696 0.499353
vt 0.913696 0.464317
vt 0.969252 0.499411
vt 0.969252 0.531887
vt 0.913696 0.531887
vt 0.913696 0.499353
vt 0.913696 0.464317
vt 0.913696 0.499353
vt 0.858139 0.499295
vt 0.858139 0.464317
vt 0.913696 0.499353
vt 0.913696 0.531887
vt 0.858139 0.531887
vt 0.858139 0.499295
vt 0.858139 0.326687
vt 0.858139 0.357818
vt 0.805445 0.357891
vt 0.805445 0.326687
vt 0.858139 0.357818
vt 0.858139 0.388031
vt 0.805445 0.388031
vt 0.805445 0.357891
vt 0.805445 0.326687
vt 0.805445 0.357891
vt 0.754399 0.357891
vt 0.754399 0.326687
vt 0.805445 0.357891
vt 0.805445 0.388031
vt 0.754399 0.388031
vt 0.754399 0.357891
vt 0.754399 0.326687
vt 0.754399 0.357891
vt 0.701706 0.357818
vt 0.701706 0.326687
vt 0.754399 0.357891
vt 0.754399 0.388031
vt 0.701706 0.388031
vt 0.701706 0.357818
vt 0.701706 0.326687
vt 0.701706 0.357818
vt 0.646149 0.357698
vt 0.646149 0.326687
vt 0.701706 0.357818
vt 0.701706 0.388031
vt 0.646149 0.388031
vt 0.646149 0.357698
vt 0.646149 0.326687
vt 0.646149 0.357698
vt 0.590592 0.357576
vt 0.590592 0.326687
vt 0.646149 0.357698
vt 0.646149 0.388031
vt 0.590592 0.388031
vt 0.590592 0.357576
vt 0.590592 0.326687
vt 0.590592 0.357576
vt 0.537900 0.357501
vt 0.537900 0.326687
vt 0.590592 0.357576
vt 0.590592 0.388031
vt 0.537900 0.388031
vt 0.537900 0.357501
vt 0.537900 0.326687
vt 0.537900 0.357501
vt 0.486852 0.357501
vt 0.486852 0.326687
vt 0.537900 0.357501
vt 0.537900 0.388031
vt 0.486852 0.388031
vt 0.486852 0.357501
vt 0.486852 0.326687
vt 0.486852 0.357501
vt 0.434159 0.357576
vt 0.434159 0.326687
vt 0.486852 0.357501
vt 0.486852 0.388031
vt 0.434159 0.388031
vt 0.434159 0.357576
vt 0.969252 0.326687
vt 0.969252 0.357576
vt 0.913696 0.357698
vt 0.913696 0.326687
vt 0.969252 0.357576
vt 0.969252 0.388031
vt 0.913696 0.388031
vt 0.913696 0.357698
vt 0.913696 0.326687
vt 0.913696 0.357698
vt 0.858139 0.357818
vt 0.858139 0.326687
vt 0.913696 0.357698
vt 0.913696 0.388031
vt 0.858139 0.388031
vt 0.858139 0.357818
vt 0.858139 0.388031
vt 0.858139 0.421891
vt 0.805445 0.421880
vt 0.805445 0.388031
vt 0.858139 0.421891
vt 0.858139 0.464317
vt 0.805445 0.464317
vt 0.805445 0.421880
vt 0.805445 0.388031
vt 0.805445 0.421880
vt 0.754399 0.421880
vt 0.754399 0.388031
vt 0.805445 0.421880
vt 0.805445 0.464317
vt 0.754399 0.464317
vt 0.754399 0.421880
vt 0.754399 0.388031
vt 0.754399 0.421880
vt 0.701706 0.421891
vt 0.701706 0.388031
vt 0.754399 0.421880
vt 0.754399 0.464317
vt 0.701706 0.464317
vt 0.701706 0.421891
vt 0.701706 0.388031
vt 0.701706 0.421891
vt 0.646149 0.421909
vt 0.646149 0.388031
vt 0.701706 0.421891
vt 0.701706 0.464317
vt 0.646149 0.464317
vt 0.646149 0.421909
vt 0.646149 0.388031
vt 0.646149 0.421909
vt 0.590592 0.421926
vt 0.590592 0.388031
vt 0.646149 0.421909
vt 0.646149 0.464317
vt 0.590592 0.464317
vt 0.590592 0.421926
vt 0.590592 0.388031
vt 0.590592 0.421926
vt 0.537900 0.421937
vt 0.537900 0.388031
vt 0.590592 0.421926
vt 0.590592 0.464317
vt 0.537900 0.464317
vt 0.537900 0.421937
vt 0.537900 0.388031
vt 0.537900 0.421937
vt 0.486852 0.421937
vt 0.486852 0.388031
vt 0.537900 0.421937
vt 0.537900 0.464317
vt 0.486852 0.464317
vt 0.486852 0.421937
vt 0.486852 0.388031
vt 0.486852 0.421937
vt 0.434159 0.421926
vt 0.434159 0.388031
vt 0.486852 0.421937
vt 0.486852 0.464317
vt 0.434159 0.464317
vt 0.434159 0.421926
vt 0.969252 0.388031
vt 0.969252 0.421926
vt 0.913696 0.421909
vt 0.913696 0.388031
vt 0.969252 0.421926
vt 0.969252 0.464317
vt 0.913696 0.464317
vt 0.913696 0.421909
vt 0.913696 0.388031
vt 0.913696 0.421909
vt 0.858139 0.421891
vt 0.858139 0.388031
vt 0.913696 0.421909
vt 0.913696 0.464317
vt 0.858139 0.464317
vt 0.858139 0.421891
vt 0.858139 0.184076
vt 0.858139 0.220652
vt 0.805445 0.220652
vt 0.805445 0.184076
vt 0.858139 0.220652
vt 0.858139 0.246666
vt 0.805445 0.246666
vt 0.805445 0.220652
vt 0.805445 0.184076
vt 0.805445 0.220652
vt 0.754399 0.220652
vt 0.754399 0.184076
vt 0.805445 0.220652
vt 0.805445 0.246666
vt 0.754399 0.246666
vt 0.754399 0.220652
vt 0.754399 0.184076
vt 0.754399 0.220652
vt 0.701706 0.220652
vt 0.701706 0.184076
vt 0.754399 0.220652
vt 0.754399 0.246666
vt 0.701706 0.246666
vt 0.701706 0.220652
vt 0.701706 0.184076
vt 0.701706 0.220652
vt 0.646149 0.220652
vt 0.646149 0.184076
vt 0.701706 0.220652
vt 0.701706 0.246666
vt 0.646149 0.246666
vt 0.646149 0.220652
vt 0.646149 0.184076
vt 0.646149 0.220652
vt 0.590592 0.220652
vt 0.590592 0.184076
vt 0.646149 0.220652
vt 0.646149 0.246666
vt 0.590592 0.246666
vt 0.590592 0.220652
vt 0.590592 0.184076
vt 0.590592 0.220652
vt 0.537900 0.220652
vt 0.537900 0.184076
vt 0.590592 0.220652
vt 0.590592 0.246666
vt 0.537900 0.246666
vt 0.537900 0.220652
vt 0.537900 0.184076
vt 0.537900 0.220652
vt 0.486852 0.220652
vt 0.486852 0.184076
vt 0.537900 0.220652
vt 0.537900 0.246666
vt 0.486852 0.246666
vt 0.486852 0.220652
vt 0.486852 0.184076
vt 0.486852 0.220652
vt 0.434159 0.220652
vt 0.434159 0.184076
vt 0.486852 0.220652
vt 0.486852 0.246666
vt 0.434159 0.246666
vt 0.434159 0.220652
vt 0.969252 0.184076
vt 0.969252 0.220652
vt 0.913696 0.220652
vt 0.913696 0.184076
vt 0.969252 0.220652
vt 0.969252 0.246666
vt 0.913696 0.246666
vt 0.913696 0.220652
vt 0.913696 0.184076
vt 0.913696 0.220652
vt 0.858139 0.220652
vt 0.858139 0.184076
vt 0.913696 0.220652
vt 0.913696 0.246666
vt 0.858139 0.246666
vt 0.858139 0.220652
vt 0.858139 0.246666
vt 0.858139 0.287642
vt 0.805445 0.287638
vt 0.805445 0.246666
vt 0.858139 0.287642
vt 0.858139 0.326687
vt 0.805445 0.326687
vt 0.805445 0.287638
vt 0.805445 0.246666
vt 0.805445 0.287638
vt 0.754399 0.287638
vt 0.754399 0.246666
vt 0.805445 0.287638
vt 0.805445 0.326687
vt 0.754399 0.326687
vt 0.754399 0.287638
vt 0.754399 0.246666
vt 0.754399 0.287638
vt 0.701706 0.287642
vt 0.701706 0.246666
vt 0.754399 0.287638
vt 0.754399 0.326687
vt 0.701706 0.326687
vt 0.701706 0.287642
vt 0.701706 0.246666
vt 0.701706 0.287642
vt 0.646149 0.287648
vt 0.646149 0.246666
vt 0.701706 0.287642
vt 0.701706 0.326687
vt 0.646149 0.326687
vt 0.646149 0.287648
vt 0.646149 0.246666
vt 0.646149 0.287648
vt 0.590592 0.287655
vt 0.590592 0.246666
vt 0.646149 0.287648
vt 0.646149 0.326687
vt 0.590592 0.326687
vt 0.590592 0.287655
vt 0.590592 0.246666
vt 0.590592 0.287655
vt 0.537900 0.287659
vt 0.537900 0.246666
vt 0.590592 0.287655
vt 0.590592 0.326687
vt 0.537900 0.326687
vt 0.537900 0.287659
vt 0.537900 0.246666
vt 0.537900 0.287659
vt 0.486852 0.287659
vt 0.486852 0.246666
vt 0.537900 0.287659
vt 0.537900 0.326687
vt 0.486852 0.326687
vt 0.486852 0.287659
vt 0.486852 0.246666
vt 0.486852 0.287659
vt 0.434159 0.287655
vt 0.434159 0.246666
vt 0.486852 0.287659
vt 0.486852 0.326687
vt 0.434159 0.326687
vt 0.434159 0.287655
vt 0.969252 0.246666
vt 0.969252 0.287655
vt 0.913696 0.287648
vt 0.913696 0.246666
vt 0.969252 0.287655
vt 0.969252 0.326687
vt 0.913696 0.326687
vt 0.913696 0.287648
vt 0.913696 0.246666
vt 0.913696 0.287648
vt 0.858139 0.287642
vt 0.858139 0.246666
vt 0.913696 0.287648
vt 0.913696 0.326687
vt 0.858139 0.326687
vt 0.858139 0.287642
# num_uvs: 500

g stalag1
s 1

usemtl cavelarge
f 1/1/1 11/2/11 12/3/12 2/4/2 
f 2/5/2 12/6/12 13/7/13 3/8/3 
f 3/9/3 13/10/13 14/11/14 4/12/4 
f 4/13/4 14/14/14 15/15/15 5/16/5 
f 5/17/5 15/18/15 16/19/16 6/20/6 
f 6/21/6 16/22/16 17/23/17 7/24/7 
f 7/25/7 17/26/17 18/27/18 8/28/8 
f 8/29/8 18/30/18 19/31/19 9/32/9 
f 9/33/9 19/34/19 20/35/20 10/36/10 
f 10/37/10 20/38/20 11/39/11 1/40/1 
f 11/41/11 21/42/21 22/43/22 12/44/12 
f 12/45/12 22/46/22 23/47/23 13/48/13 
f 13/49/13 23/50/23 24/51/24 14/52/14 
f 14/53/14 24/54/24 25/55/25 15/56/15 
f 15/57/15 25/58/25 26/59/26 16/60/16 
f 16/61/16 26/62/26 27/63/27 17/64/17 
f 17/65/17 27/66/27 28/67/28 18/68/18 
f 18/69/18 28/70/28 29/71/29 19/72/19 
f 19/73/19 29/74/29 30/75/30 20/76/20 
f 20/77/20 30/78/30 21/79/21 11/80/11 
f 80/81/80 79/82/79 78/83/78 77/84/77 76/85/76 75/86/75 74/87/74 73/88/73 72/89/72 71/90/71 
f 1/91/1 2/92/2 3/93/3 4/94/4 5/95/5 6/96/6 7/97/7 8/98/8 9/99/9 10/100/10 
f 61/101/61 81/102/81 90/103/90 62/104/62 
f 81/105/81 71/106/71 72/107/72 90/108/90 
f 62/109/62 90/110/90 89/111/89 63/112/63 
f 90/113/90 72/114/72 73/115/73 89/116/89 
f 63/117/63 89/118/89 88/119/88 64/120/64 
f 89/121/89 73/122/73 74/123/74 88/124/88 
f 64/125/64 88/126/88 87/127/87 65/128/65 
f 88/129/88 74/130/74 75/131/75 87/132/87 
f 65/133/65 87/134/87 86/135/86 66/136/66 
f 87/137/87 75/138/75 76/139/76 86/140/86 
f 66/141/66 86/142/86 85/143/85 67/144/67 
f 86/145/86 76/146/76 77/147/77 85/148/85 
f 67/149/67 85/150/85 84/151/84 68/152/68 
f 85/153/85 77/154/77 78/155/78 84/156/84 
f 68/157/68 84/158/84 83/159/83 69/160/69 
f 84/161/84 78/162/78 79/163/79 83/164/83 
f 69/165/69 83/166/83 82/167/82 70/168/70 
f 83/169/83 79/170/79 80/171/80 82/172/82 
f 70/173/70 82/174/82 81/175/81 61/176/61 
f 82/177/82 80/178/80 71/179/71 81/180/81 
f 41/181/41 91/182/91 100/183/100 42/184/42 
f 91/185/91 51/186/51 52/187/52 100/188/100 
f 42/189/42 100/190/100 99/191/99 43/192/43 
f 100/193/100 52/194/52 53/195/53 99/196/99 
f 43/197/43 99/198/99 98/199/98 44/200/44 
f 99/201/99 53/202/53 54/203/54 98/204/98 
f 44/205/44 98/206/98 97/207/97 45/208/45 
f 98/209/98 54/210/54 55/211/55 97/212/97 
f 45/213/45 97/214/97 96/215/96 46/216/46 
f 97/217/97 55/218/55 56/219/56 96/220/96 
f 46/221/46 96/222/96 95/223/95 47/224/47 
f 96/225/96 56/226/56 57/227/57 95/228/95 
f 47/229/47 95/230/95 94/231/94 48/232/48 
f 95/233/95 57/234/57 58/235/58 94/236/94 
f 48/237/48 94/238/94 93/239/93 49/240/49 
f 94/241/94 58/242/58 59/243/59 93/244/93 
f 49/245/49 93/246/93 92/247/92 50/248/50 
f 93/249/93 59/250/59 60/251/60 92/252/92 
f 50/253/50 92/254/92 91/255/91 41/256/41 
f 92/257/92 60/258/60 51/259/51 91/260/91 
f 51/261/51 101/262/101 110/263/110 52/264/52 
f 101/265/101 61/266/61 62/267/62 110/268/110 
f 52/269/52 110/270/110 109/271/109 53/272/53 
f 110/273/110 62/274/62 63/275/63 109/276/109 
f 53/277/53 109/278/109 108/279/108 54/280/54 
f 109/281/109 63/282/63 64/283/64 108/284/108 
f 54/285/54 108/286/108 107/287/107 55/288/55 
f 108/289/108 64/290/64 65/291/65 107/292/107 
f 55/293/55 107/294/107 106/295/106 56/296/56 
f 107/297/107 65/298/65 66/299/66 106/300/106 
f 56/301/56 106/302/106 105/303/105 57/304/57 
f 106/305/106 66/306/66 67/307/67 105/308/105 
f 57/309/57 105/310/105 104/311/104 58/312/58 
f 105/313/105 67/314/67 68/315/68 104/316/104 
f 58/317/58 104/318/104 103/319/103 59/320/59 
f 104/321/104 68/322/68 69/323/69 103/324/103 
f 59/325/59 103/326/103 102/327/102 60/328/60 
f 103/329/103 69/330/69 70/331/70 102/332/102 
f 60/333/60 102/334/102 101/335/101 51/336/51 
f 102/337/102 70/338/70 61/339/61 101/340/101 
f 21/341/21 111/342/111 120/343/120 22/344/22 
f 111/345/111 31/346/31 32/347/32 120/348/120 
f 22/349/22 120/350/120 119/351/119 23/352/23 
f 120/353/120 32/354/32 33/355/33 119/356/119 
f 23/357/23 119/358/119 118/359/118 24/360/24 
f 119/361/119 33/362/33 34/363/34 118/364/118 
f 24/365/24 118/366/118 117/367/117 25/368/25 
f 118/369/118 34/370/34 35/371/35 117/372/117 
f 25/373/25 117/374/117 116/375/116 26/376/26 
f 117/377/117 35/378/35 36/379/36 116/380/116 
f 26/381/26 116/382/116 115/383/115 27/384/27 
f 116/385/116 36/386/36 37/387/37 115/388/115 
f 27/389/27 115/390/115 114/391/114 28/392/28 
f 115/393/115 37/394/37 38/395/38 114/396/114 
f 28/397/28 114/398/114 113/399/113 29/400/29 
f 114/401/114 38/402/38 39/403/39 113/404/113 
f 29/405/29 113/406/113 112/407/112 30/408/30 
f 113/409/113 39/410/39 40/411/40 112/412/112 
f 30/413/30 112/414/112 111/415/111 21/416/21 
f 112/417/112 40/418/40 31/419/31 111/420/111 
f 31/421/31 121/422/121 130/423/130 32/424/32 
f 121/425/121 41/426/41 42/427/42 130/428/130 
f 32/429/32 130/430/130 129/431/129 33/432/33 
f 130/433/130 42/434/42 43/435/43 129/436/129 
f 33/437/33 129/438/129 128/439/128 34/440/34 
f 129/441/129 43/442/43 44/443/44 128/444/128 
f 34/445/34 128/446/128 127/447/127 35/448/35 
f 128/449/128 44/450/44 45/451/45 127/452/127 
f 35/453/35 127/454/127 126/455/126 36/456/36 
f 127/457/127 45/458/45 46/459/46 126/460/126 
f 36/461/36 126/462/126 125/463/125 37/464/37 
f 126/465/126 46/466/46 47/467/47 125/468/125 
f 37/469/37 125/470/125 124/471/124 38/472/38 
f 125/473/125 47/474/47 48/475/48 124/476/124 
f 38/477/38 124/478/124 123/479/123 39/480/39 
f 124/481/124 48/482/48 49/483/49 123/484/123 
f 39/485/39 123/486/123 122/487/122 40/488/40 
f 123/489/123 49/490/49 50/491/50 122/492/122 
f 40/493/40 122/494/122 121/495/121 31/496/31 
f 122/497/122 50/498/50 41/499/41 121/500/121 
# num_faces: 122

